<svg width="29" height="24" viewBox="0 0 29 24" fill="none" xmlns="http://www.w3.org/2000/svg">
<g clip-path="url(#clip0_409_1826)">
<path d="M0.0703125 16H29.1511V24H0.0703125V16Z" fill="black"/>
<path d="M0.0703125 8H29.1511V16H0.0703125V8Z" fill="white"/>
<path d="M0.0703125 0H29.1511V8H0.0703125V0Z" fill="#CE1126"/>
<path d="M14.642 12.0965L17.132 14.6405L16.9539 10.0205C16.9284 9.32047 16.3759 9.48047 15.9724 9.73247C15.5689 10.0205 15.1 10.0205 14.6129 9.83247C14.1221 10.0205 13.6568 10.0205 13.2533 9.73247C12.8535 9.48047 12.2973 9.32047 12.2719 10.0205L12.0938 14.6405L14.642 12.0965Z" fill="white" stroke="#C09300" stroke-width="0.13" stroke-linejoin="round"/>
<path d="M12.559 9.85718L12.3846 14.3492L12.0938 14.6372L12.2719 10.0172C12.3577 9.94471 12.4551 9.89045 12.559 9.85718ZM12.908 10.1772L12.7626 13.9372L12.4718 14.2652L12.6463 9.92518C12.7044 9.98918 12.8753 10.1452 12.908 10.1772ZM13.2243 10.4652L13.1116 13.6012L12.8753 13.8532L13.0207 10.2772C13.0789 10.3372 13.1952 10.4292 13.2243 10.4652ZM13.5696 10.6252L13.4569 13.2972L13.2279 13.5012L13.3406 10.5292C13.3987 10.5572 13.5114 10.6252 13.5696 10.6252ZM13.8895 10.6252L13.8059 12.8532L13.5696 13.1052L13.6605 10.6532C13.715 10.6532 13.864 10.6532 13.8895 10.6252Z" fill="#C09300"/>
<path d="M16.6675 9.85718L16.842 14.3492L17.1328 14.6372L16.9547 10.0172C16.8688 9.94471 16.7714 9.89045 16.6675 9.85718ZM16.3186 10.1772L16.464 13.9372L16.7548 14.2652L16.5803 9.92518C16.5221 9.98918 16.3513 10.1452 16.3186 10.1772ZM16.0023 10.4652L16.115 13.6012L16.3513 13.8532L16.2059 10.2772C16.1477 10.3372 16.0314 10.4292 16.0023 10.4652ZM15.657 10.6252L15.7697 13.2972L15.9987 13.5012L15.886 10.5292C15.8278 10.5572 15.7151 10.6252 15.657 10.6252ZM15.3371 10.6252L15.4207 12.8532L15.657 13.1052L15.5661 10.6532C15.5116 10.6532 15.3625 10.6532 15.3371 10.6252Z" fill="#C09300"/>
<path d="M14.7301 12.5981L15.079 14.3501L14.9627 14.4781L14.8427 14.3781L14.6464 12.8181L14.7301 14.3781L14.6137 14.5381L14.501 14.3781L14.5846 12.8181L14.3847 14.3781L14.2648 14.4781L14.1484 14.3501L14.4974 12.6021H14.7301V12.5981Z" fill="#C09300" stroke="#C09300" stroke-width="0.11"/>
<path d="M13.8312 11.8303L13.1369 14.5383L14.0929 14.6983L14.4964 12.6623L13.8312 11.8303Z" fill="white" stroke="#C09300" stroke-width="0.12" stroke-linejoin="round"/>
<path d="M13.6017 12.7564L13.6853 12.9764L14.1361 12.5044" stroke="#C09300" stroke-width="0.13" stroke-linejoin="round"/>
<path d="M13.914 12.1963L14.0085 13.1683L14.2956 12.7523M14.1793 12.9123L14.3356 13.5123M14.3974 13.2923L14.0812 13.8203M14.1793 14.3483L14.0775 13.8203M14.0775 13.8203L13.9903 13.2843L13.7758 13.6003L13.6849 13.2363L13.3869 13.5723L13.5359 14.1803L13.7467 13.8043L13.8594 14.1883L14.0775 13.8203Z" stroke="#C09300" stroke-width="0.13" stroke-linejoin="round"/>
<path d="M13.34 14.4782L13.5327 14.1782L13.6563 14.6382L13.8307 14.3182L13.9434 14.7022" stroke="#C09300" stroke-width="0.13" stroke-linejoin="round"/>
<path d="M15.3955 11.8303L16.0898 14.5383L15.1338 14.6983L14.7303 12.6623L15.3955 11.8303Z" fill="white" stroke="#C09300" stroke-width="0.12" stroke-linejoin="round"/>
<path d="M15.625 12.7564L15.5414 12.9764L15.0906 12.5044" stroke="#C09300" stroke-width="0.13" stroke-linejoin="round"/>
<path d="M15.3128 12.1963L15.2182 13.1683L14.9311 12.7523M15.0474 12.9123L14.8911 13.5123M14.8293 13.2923L15.1455 13.8203M15.0474 14.3483L15.1492 13.8203M15.1492 13.8203L15.2364 13.2843L15.4509 13.6003L15.5418 13.2363L15.8398 13.5723L15.6908 14.1803L15.48 13.8043L15.3673 14.1883L15.1492 13.8203Z" stroke="#C09300" stroke-width="0.13" stroke-linejoin="round"/>
<path d="M15.8867 14.4782L15.6941 14.1782L15.5705 14.6382L15.396 14.3182L15.2833 14.7022" stroke="#C09300" stroke-width="0.13" stroke-linejoin="round"/>
<path d="M14.6133 15.7505C15.3403 15.7505 16.031 15.6865 16.4381 15.5625C16.609 15.5265 16.609 15.4305 16.609 15.3025C16.7834 15.2385 16.6962 15.0145 16.8162 15.0145C16.6926 15.0545 16.6708 14.7945 16.5254 14.8265C16.5254 14.6025 16.3182 14.5745 16.1473 14.6385C15.802 14.7625 15.1913 14.7945 14.6133 14.7945C14.0317 14.7625 13.4283 14.7625 13.0793 14.6345C12.9084 14.5745 12.7049 14.6025 12.7049 14.8265C12.5595 14.7945 12.534 15.0505 12.4141 15.0145C12.534 15.0145 12.4431 15.2425 12.6176 15.3025C12.6176 15.4305 12.6176 15.5265 12.7921 15.5625C13.192 15.6865 13.8899 15.7505 14.6133 15.7505Z" fill="white" stroke="#C09300" stroke-width="0.24" stroke-linecap="round" stroke-linejoin="round"/>
<path d="M13.6282 14.5371C13.8608 14.5731 14.1226 14.6011 14.3261 14.5731C14.4424 14.5731 14.5261 14.7931 14.2934 14.8251C14.0935 14.8531 13.7736 14.8251 13.6027 14.7931C13.3779 14.7498 13.1548 14.6965 12.9339 14.6331C12.7303 14.5371 12.8757 14.3531 12.992 14.3771C13.1996 14.4503 13.4124 14.5038 13.6282 14.5371ZM15.5984 14.5371C15.3658 14.5731 15.104 14.6011 14.9077 14.5731C14.7841 14.5731 14.7005 14.7931 14.9332 14.8251C15.1367 14.8531 15.453 14.8251 15.6238 14.7931C15.7693 14.7611 16.0891 14.7011 16.2927 14.6331C16.4963 14.5371 16.3509 14.3531 16.2345 14.3771C16.027 14.4503 15.8142 14.5038 15.5984 14.5371Z" fill="white" stroke="#C09300" stroke-width="0.13" stroke-linecap="round" stroke-linejoin="round"/>
<path d="M12.9045 14.4145C12.7301 14.3785 12.6501 14.6025 12.7046 14.7305C12.7301 14.6665 12.85 14.6665 12.8755 14.6025C12.9082 14.5065 12.85 14.5065 12.9082 14.4145H12.9045ZM13.6025 15.0025C13.6025 14.8745 13.7152 14.8905 13.7152 14.7625C13.7152 14.7025 13.6861 14.6025 13.6279 14.6025C13.5976 14.6044 13.5691 14.6185 13.5476 14.6421C13.5262 14.6657 13.5133 14.6972 13.5116 14.7305C13.4862 14.8545 13.6025 14.8745 13.6025 15.0025ZM14.4276 14.6385C14.5985 14.6385 14.5803 14.8905 14.5003 15.0185C14.5003 14.9265 14.3549 14.8905 14.3549 14.8265C14.3549 14.7305 14.4858 14.7305 14.4276 14.6385ZM16.3179 14.4145C16.496 14.3785 16.5796 14.6025 16.5215 14.7305C16.496 14.6665 16.3761 14.6665 16.3506 14.6025C16.3179 14.5065 16.3761 14.5065 16.3179 14.4145ZM15.6309 14.9985C15.6309 14.8705 15.5145 14.8865 15.5145 14.7585C15.5145 14.6985 15.5436 14.5985 15.6018 14.5985C15.6321 14.6004 15.6607 14.6145 15.6821 14.6381C15.7036 14.6617 15.7164 14.6932 15.7181 14.7265C15.7436 14.8505 15.6272 14.8705 15.6272 14.9985H15.6309ZM14.7948 14.6385C14.6239 14.6385 14.6421 14.8905 14.7221 15.0185C14.7221 14.9265 14.8675 14.8905 14.8675 14.8265C14.8675 14.7305 14.7366 14.7305 14.7948 14.6385Z" fill="white" stroke="#C09300" stroke-width="0.13" stroke-linecap="round" stroke-linejoin="round"/>
<path d="M12.9648 14.4778C13.023 14.4778 13.1102 14.5058 13.1357 14.5418L12.9648 14.4778ZM13.252 14.5738C13.2811 14.5738 13.3974 14.6018 13.4519 14.6378L13.252 14.5738ZM14.2917 14.7018C14.2371 14.7018 14.1208 14.7018 14.0917 14.7298L14.2917 14.6978V14.7018ZM13.9754 14.7018C13.9427 14.6658 13.83 14.6658 13.7718 14.7018H13.9754ZM16.2582 14.4778C16.1966 14.4786 16.1367 14.5011 16.0874 14.5418L16.2582 14.4778ZM15.9747 14.5738C15.9384 14.5738 15.8293 14.6018 15.7711 14.6378L15.9747 14.5738ZM14.9314 14.7018C14.986 14.7018 15.1023 14.7018 15.135 14.7298L14.9314 14.6978V14.7018ZM15.2477 14.7018C15.2804 14.6658 15.3931 14.6658 15.4513 14.7018H15.2477Z" fill="white" stroke="#C09300" stroke-width="0.09" stroke-linecap="round" stroke-linejoin="round"/>
<path d="M12.9147 14.9851C12.8965 14.9811 12.8856 14.9611 12.8929 14.9451C12.8965 14.9171 12.9147 14.9051 12.9293 14.9131C12.9438 14.9131 12.962 14.9371 12.962 14.9451L12.9474 14.9731L12.9402 14.9771C12.9402 14.9851 12.9256 14.9851 12.9147 14.9851ZM14.914 15.1411C14.9067 15.1411 14.8922 15.1211 14.8922 15.1131C14.8922 15.0971 14.914 15.0731 14.9286 15.0731L14.9576 15.0891C14.9685 15.1011 14.9685 15.1251 14.954 15.1371C14.9467 15.1451 14.9249 15.1451 14.914 15.1371V15.1411ZM14.9249 15.2411C14.9104 15.2331 14.9067 15.2251 14.9031 15.2091C14.9031 15.1891 14.9031 15.1851 14.9213 15.1731L14.9358 15.1651L14.9504 15.1731C14.9649 15.1811 14.9758 15.1891 14.9758 15.2051C14.9758 15.2171 14.9649 15.2291 14.9504 15.2371C14.9395 15.2451 14.9358 15.2451 14.9249 15.2371V15.2411Z" fill="#C09300"/>
<path d="M13.0798 14.7991C13.0652 14.7991 13.047 14.8151 13.0361 14.8231C13.0143 14.8271 12.9852 14.8431 12.9634 14.8231C12.9416 14.8191 12.9125 14.8231 12.9089 14.8551C12.9125 14.8831 12.9453 14.8951 12.9671 14.8791C12.9816 14.8591 13.0216 14.8431 13.0289 14.8791C13.0107 14.9111 13.0143 14.9471 12.9998 14.9751C12.9998 14.9951 12.9889 15.0111 12.9816 15.0271C12.9634 15.0271 12.9453 15.0271 12.9307 15.0391C12.9194 15.0391 12.9083 15.042 12.8982 15.0475C12.8881 15.0531 12.8793 15.0611 12.8726 15.0711C12.858 15.0951 12.8435 15.1191 12.8398 15.1511C12.8435 15.1751 12.8762 15.1831 12.898 15.1871L12.9707 15.2111L13.087 15.2471C13.1452 15.2671 13.2034 15.2751 13.2615 15.2911L13.2797 15.2951C13.3051 15.3031 13.316 15.2751 13.316 15.2551L13.3524 15.1111C13.3597 15.0911 13.3706 15.0511 13.3379 15.0591C13.3197 15.0711 13.3015 15.0911 13.2797 15.0911C13.247 15.0911 13.2651 15.1311 13.2797 15.1431C13.2797 15.1671 13.2724 15.1951 13.2615 15.2151C13.2397 15.2271 13.2179 15.2151 13.1961 15.2071C13.1779 15.2071 13.1343 15.1951 13.1525 15.1671L13.1706 15.0951C13.1815 15.0711 13.1815 15.0431 13.1888 15.0151C13.1743 14.9871 13.1525 15.0271 13.1343 15.0311C13.1197 15.0391 13.0761 15.0431 13.0979 15.0711C13.1197 15.0871 13.1052 15.1151 13.0979 15.1391C13.0979 15.1671 13.0689 15.1791 13.047 15.1671C13.0252 15.1671 12.9925 15.1471 13.0107 15.1231L13.0289 15.0511L13.0543 14.9711C13.0543 14.9431 13.0652 14.9231 13.0761 14.8991C13.0761 14.8711 13.0943 14.8471 13.0943 14.8191C13.0943 14.8071 13.087 14.8031 13.0798 14.8031V14.7991ZM12.9453 15.0911C12.9469 15.09 12.9488 15.0895 12.9507 15.0895C12.9526 15.0895 12.9545 15.09 12.9562 15.0911C12.9634 15.0991 12.9634 15.1071 12.9562 15.1151L12.9453 15.1231C12.9271 15.1231 12.9235 15.1191 12.9235 15.1111C12.9235 15.1071 12.9235 15.1031 12.9344 15.0991C12.9388 15.0956 12.9437 15.0929 12.9489 15.0911H12.9453ZM12.9089 15.2911C12.8907 15.2751 12.8944 15.2631 12.9198 15.2391C12.9344 15.2311 12.938 15.2311 12.9525 15.2431C12.9743 15.2631 12.9743 15.2751 12.9525 15.2951C12.9453 15.3031 12.9416 15.3031 12.9344 15.3031C12.9235 15.3031 12.9198 15.3031 12.9089 15.2951V15.2911ZM13.018 15.3311C13.0098 15.3283 13.003 15.3221 12.999 15.3139C12.9949 15.3057 12.9939 15.2961 12.9962 15.2871C13.0034 15.2711 13.0071 15.2671 13.0289 15.2671C13.0543 15.2671 13.0579 15.2711 13.0616 15.2951C13.0616 15.3111 13.0616 15.3151 13.0507 15.3231C13.0466 15.3266 13.0419 15.3291 13.0369 15.3305C13.0319 15.3319 13.0267 15.3321 13.0216 15.3311H13.018ZM16.2605 15.3311C16.2532 15.3271 16.2496 15.3231 16.2496 15.3111C16.2496 15.2951 16.2568 15.2831 16.2786 15.2751C16.3005 15.2631 16.315 15.2631 16.3223 15.2831C16.3332 15.3071 16.3332 15.3151 16.3186 15.3311C16.3114 15.3431 16.3077 15.3431 16.2896 15.3431C16.2714 15.3431 16.2677 15.3431 16.2605 15.3351V15.3311ZM13.1706 15.3791C13.1561 15.3791 13.1488 15.3631 13.1488 15.3471C13.1488 15.3351 13.1488 15.3311 13.1561 15.3231L13.1779 15.3151L13.1997 15.3191C13.2179 15.3351 13.2215 15.3511 13.2106 15.3671C13.1997 15.3831 13.1888 15.3831 13.167 15.3791H13.1706ZM13.9631 15.4191L13.9558 15.4071C13.9558 15.3831 13.9558 15.3631 13.9631 15.3391C13.9667 15.3191 13.9631 15.2991 13.9704 15.2791L13.9849 15.1671C13.9849 15.1471 13.9849 15.1271 13.9922 15.1111C13.9958 15.0791 13.9922 15.0511 13.9994 15.0231C13.9994 15.0111 14.0103 14.9831 14.0213 14.9991C14.0358 15.0231 14.054 15.0391 14.0721 15.0591C14.0867 15.0711 14.0721 15.0871 14.0612 15.0911C14.0467 15.0951 14.0431 15.1151 14.0431 15.1311L14.0358 15.1791C14.0358 15.2071 14.0358 15.2311 14.0285 15.2591L14.0249 15.3311L14.0176 15.3791C14.0176 15.3951 14.0176 15.4151 14.0031 15.4231C13.9922 15.4311 13.974 15.4311 13.9667 15.4191H13.9631ZM15.0427 15.0271L14.9955 15.0751C14.9736 15.0951 15.0136 15.1031 15.0173 15.1191C15.0245 15.1431 15.0245 15.1671 15.0245 15.1911C15.0318 15.2151 15.0354 15.2351 15.0318 15.2591C15.0318 15.2871 15.0027 15.2791 14.9882 15.2951C14.97 15.3031 14.9627 15.3231 14.9518 15.3351C14.9432 15.3551 14.9382 15.3769 14.9373 15.3991C14.9373 15.4191 14.9264 15.4391 14.9373 15.4551L14.9409 15.4631H14.9591L15.0136 15.4591C15.0573 15.4511 15.1045 15.4511 15.1481 15.4471L15.2281 15.4391C15.2499 15.4431 15.2608 15.4191 15.2608 15.3991C15.2463 15.3711 15.2572 15.3431 15.2463 15.3191C15.239 15.2871 15.2426 15.2591 15.239 15.2311C15.239 15.2071 15.2136 15.1991 15.2027 15.2151C15.1881 15.2311 15.1663 15.2351 15.159 15.2511C15.1481 15.2751 15.1808 15.2751 15.1881 15.2911L15.1918 15.3511C15.1954 15.3751 15.1736 15.3751 15.1554 15.3791C15.1372 15.3871 15.1118 15.3911 15.1009 15.3671C15.0936 15.3471 15.0936 15.3271 15.0936 15.3071C15.0936 15.2671 15.0827 15.2351 15.0827 15.1991C15.0827 15.1591 15.0718 15.1151 15.0718 15.0711C15.0718 15.0511 15.0682 15.0231 15.0427 15.0271ZM15.0209 15.3551H15.0318V15.3871L15.0209 15.3911C15.0161 15.3927 15.0113 15.3941 15.0064 15.3951C15.0039 15.3952 15.0015 15.3952 14.9991 15.3951C14.9918 15.3871 14.9918 15.3751 15.0027 15.3631L15.0209 15.3551ZM13.9304 14.9871C13.9195 14.9871 13.9013 15.0151 13.8868 15.0111C13.854 15.0151 13.8577 15.0511 13.8831 15.0631V15.0951C13.8868 15.1271 13.8686 15.1551 13.8722 15.1871C13.8722 15.2191 13.8613 15.2551 13.8613 15.2911C13.8504 15.3271 13.8504 15.3631 13.8468 15.3991C13.8431 15.4311 13.8213 15.4191 13.8031 15.4111V15.3711C13.8068 15.3351 13.785 15.3271 13.7595 15.3231C13.7341 15.3231 13.7232 15.3031 13.7304 15.2791C13.7413 15.2631 13.7668 15.2671 13.785 15.2671C13.8213 15.2751 13.8177 15.2231 13.7995 15.2031C13.785 15.1791 13.7559 15.1631 13.7486 15.1391C13.7486 15.1071 13.7304 15.0711 13.705 15.0551C13.665 15.0511 13.6323 15.0871 13.6214 15.1271C13.6032 15.1271 13.585 15.1351 13.5705 15.1431C13.5451 15.1511 13.5087 15.1991 13.5451 15.2191C13.5632 15.2231 13.625 15.2391 13.5959 15.2671C13.5814 15.2991 13.5523 15.2991 13.5269 15.2911C13.5014 15.2911 13.4724 15.2751 13.4724 15.2431C13.4687 15.2111 13.4687 15.1791 13.4578 15.1511C13.4505 15.1191 13.4178 15.1271 13.4142 15.1591C13.3887 15.1791 13.3924 15.2151 13.4106 15.2391C13.4215 15.2671 13.4106 15.3031 13.3996 15.3271C13.3924 15.3671 13.356 15.3671 13.3306 15.3751C13.3197 15.3831 13.2724 15.3751 13.2906 15.4031C13.3179 15.4169 13.3483 15.4211 13.3778 15.4151C13.4069 15.4151 13.4324 15.3871 13.4505 15.3591C13.4687 15.3391 13.5014 15.3511 13.5305 15.3511C13.556 15.3511 13.585 15.3711 13.6141 15.3551C13.6214 15.3351 13.6577 15.2951 13.6686 15.3351C13.6686 15.3711 13.6941 15.3871 13.7232 15.3831C13.7559 15.3831 13.7413 15.4071 13.7413 15.4311C13.7413 15.4671 13.7668 15.4871 13.7959 15.5031H13.825C13.8504 15.4911 13.8795 15.4791 13.8904 15.4471C13.9013 15.4191 13.9013 15.3871 13.9086 15.3591C13.9158 15.3151 13.9231 15.2671 13.9231 15.2231C13.934 15.1831 13.9304 15.1391 13.9376 15.0951L13.9485 15.0031C13.9485 14.9831 13.9413 14.9831 13.9304 14.9871ZM13.6868 15.1511C13.6905 15.1511 13.6941 15.1591 13.6941 15.1711C13.6941 15.1871 13.7014 15.1991 13.7123 15.2031V15.2151L13.6832 15.2231C13.665 15.2231 13.6505 15.2151 13.6396 15.2031L13.6323 15.1951L13.6432 15.1871L13.6614 15.1671C13.6723 15.1551 13.6796 15.1511 13.6868 15.1511ZM16.086 14.8351C16.0651 14.8367 16.0444 14.8407 16.0242 14.8471C15.9878 14.8471 15.9697 14.8871 16.006 14.9111C16.0278 14.9711 16.0605 14.8951 16.0969 14.9031C16.1478 14.9111 16.1514 14.9751 16.1623 15.0231C16.1623 15.0671 16.1769 15.1111 16.1878 15.1551C16.2241 15.1991 16.1623 15.2271 16.1369 15.1951C16.1151 15.1671 16.0642 15.1351 16.0387 15.1711C16.006 15.1871 16.0024 15.2351 15.9769 15.2511C15.9333 15.2631 15.9297 15.2031 15.9042 15.1791C15.8824 15.1431 15.8424 15.1391 15.8097 15.1311C15.7952 15.0951 15.8024 15.0351 15.7734 15.0111C15.7443 15.0231 15.6934 15.0791 15.737 15.1071C15.7734 15.1471 15.7188 15.1631 15.7007 15.1871C15.6716 15.2231 15.6643 15.2671 15.6643 15.3071C15.6171 15.3351 15.6098 15.2751 15.6025 15.2391C15.6025 15.1951 15.5662 15.2071 15.5407 15.2231C15.5044 15.2391 15.4898 15.2751 15.468 15.3031V15.3831C15.4753 15.4191 15.5116 15.4031 15.5334 15.3991C15.5698 15.3831 15.5843 15.4271 15.5553 15.4511C15.5335 15.4751 15.4753 15.4631 15.4826 15.5071H15.5407C15.5771 15.4951 15.6207 15.4631 15.6243 15.4151C15.6316 15.3751 15.6861 15.3791 15.7152 15.3711C15.7516 15.3591 15.7988 15.3551 15.8097 15.4111C15.8352 15.4391 15.8897 15.4711 15.9188 15.4311C15.9326 15.4214 15.9437 15.4077 15.9508 15.3914C15.9579 15.3751 15.9606 15.357 15.9588 15.3391C15.9551 15.3071 16.006 15.3071 16.0206 15.3271C16.0387 15.3591 16.0969 15.3511 16.126 15.3271C16.1551 15.3071 16.1623 15.2631 16.2059 15.2631L16.4022 15.2031C16.4531 15.1911 16.395 15.1551 16.3804 15.1311C16.3441 15.1111 16.3077 15.1991 16.2641 15.1551C16.2278 15.1271 16.2314 15.0751 16.2205 15.0311C16.2096 14.9751 16.2132 14.9111 16.1769 14.8711C16.1551 14.8431 16.1187 14.8351 16.086 14.8351ZM15.8388 15.2151C15.8424 15.2151 15.8497 15.2151 15.857 15.2231C15.8715 15.2311 15.8824 15.2471 15.8824 15.2631C15.8824 15.2711 15.8824 15.2711 15.8715 15.2751L15.8533 15.2831C15.8461 15.2831 15.8279 15.2711 15.8279 15.2631V15.2471C15.8206 15.2311 15.8206 15.2311 15.8279 15.2231L15.8388 15.2151ZM16.0751 15.2311C16.0896 15.2311 16.0969 15.2311 16.1042 15.2431C16.1078 15.2591 16.1042 15.2671 16.0896 15.2751L16.0714 15.2831L16.0569 15.2711C16.0496 15.2671 16.046 15.2631 16.046 15.2551C16.046 15.2431 16.0605 15.2311 16.0751 15.2271V15.2311ZM15.7479 15.2311C15.7552 15.2311 15.7588 15.2311 15.7625 15.2391C15.7697 15.2471 15.7734 15.2511 15.7734 15.2631V15.2871C15.7734 15.2991 15.7734 15.2951 15.7516 15.2951C15.7297 15.2951 15.7261 15.2951 15.7261 15.2711C15.7261 15.2551 15.7261 15.2511 15.737 15.2431C15.7407 15.2351 15.7479 15.2351 15.7516 15.2351L15.7479 15.2311ZM15.5516 15.2911C15.5551 15.2922 15.5582 15.2943 15.5607 15.2971C15.5633 15.2999 15.5651 15.3033 15.5662 15.3071C15.5662 15.3191 15.5662 15.3271 15.5589 15.3311C15.548 15.3351 15.5298 15.3391 15.5225 15.3311C15.5224 15.3297 15.5224 15.3284 15.5225 15.3271C15.5153 15.3231 15.5153 15.3191 15.5225 15.3151V15.3111L15.5298 15.2991C15.5321 15.2952 15.5355 15.2923 15.5394 15.2908C15.5434 15.2893 15.5477 15.2894 15.5516 15.2911ZM15.8861 15.3391L15.9042 15.3431V15.3671H15.8606L15.857 15.3591C15.857 15.3511 15.857 15.3471 15.8642 15.3431L15.8861 15.3391ZM15.2645 15.5311C15.2608 15.5311 15.2535 15.5271 15.2608 15.5231C15.2645 15.5111 15.279 15.5071 15.2899 15.4991C15.3097 15.4908 15.3272 15.477 15.3408 15.4591C15.3408 15.4431 15.3553 15.4351 15.3553 15.4191L15.3517 15.3631C15.3468 15.3463 15.3364 15.332 15.3226 15.3231C15.3117 15.3191 15.2972 15.3151 15.2935 15.2991C15.2935 15.2871 15.3044 15.2751 15.3081 15.2631L15.3299 15.2151C15.3408 15.2031 15.3553 15.2151 15.359 15.2231L15.3771 15.2631C15.388 15.2751 15.3953 15.2871 15.399 15.3031C15.4062 15.3191 15.4135 15.3311 15.4135 15.3431L15.4208 15.3951C15.4208 15.4151 15.4208 15.4391 15.4135 15.4591L15.3917 15.4911C15.3808 15.5031 15.3699 15.5151 15.3553 15.5191C15.3444 15.5231 15.3372 15.5351 15.3226 15.5351H15.2681L15.2645 15.5311ZM15.0136 15.5471C15.0064 15.5391 15.0027 15.5351 15.0027 15.5231C15.0027 15.5111 15.0027 15.5111 15.0136 15.4991C15.0282 15.4831 15.0354 15.4831 15.0645 15.4991C15.09 15.5151 15.1009 15.5151 15.1009 15.5031C15.1045 15.4951 15.119 15.4831 15.1372 15.4831C15.1439 15.4833 15.1504 15.4862 15.1554 15.4911C15.1627 15.4991 15.1663 15.5031 15.1663 15.5191C15.1663 15.5391 15.1663 15.5391 15.1554 15.5511C15.1445 15.5591 15.1445 15.5591 15.13 15.5591C15.1235 15.5587 15.1173 15.5562 15.1121 15.5519C15.1069 15.5477 15.103 15.5418 15.1009 15.5351C15.1009 15.5271 15.1009 15.5231 15.0936 15.5311L15.0863 15.5351C15.0791 15.5351 15.0645 15.5471 15.0573 15.5551L15.0391 15.5591C15.0245 15.5591 15.0245 15.5591 15.0136 15.5471ZM14.2939 15.1911C14.2684 15.1911 14.243 15.2151 14.2394 15.2431C14.2466 15.2711 14.2684 15.3031 14.2539 15.3311C14.2648 15.3711 14.2248 15.3871 14.1994 15.3671C14.1848 15.3271 14.1776 15.2871 14.1521 15.2471C14.123 15.2391 14.1121 15.2911 14.0903 15.3111C14.1012 15.3391 14.1303 15.3671 14.1339 15.4031C14.1412 15.4431 14.1194 15.4831 14.094 15.4991C14.0685 15.5271 14.0322 15.5191 14.0031 15.5231C13.9667 15.5471 14.0285 15.5551 14.0467 15.5551C14.083 15.5591 14.123 15.5551 14.1557 15.5231C14.1812 15.5111 14.1776 15.4551 14.2103 15.4511L14.3848 15.4631C14.4138 15.4711 14.4611 15.4591 14.4829 15.4831C14.4829 15.5231 14.5193 15.5551 14.552 15.5711C14.5701 15.5791 14.5883 15.5511 14.6065 15.5471C14.6429 15.5351 14.6319 15.4871 14.6538 15.4671H14.8355C14.8428 15.4671 14.8464 15.4471 14.8573 15.4391L14.8501 15.3631C14.8391 15.3311 14.8501 15.2911 14.8319 15.2631C14.7992 15.2551 14.7737 15.2831 14.7446 15.2871C14.7083 15.3031 14.6828 15.3391 14.6792 15.3791C14.661 15.4151 14.6283 15.3711 14.6429 15.3391L14.6392 15.2991C14.621 15.2791 14.5883 15.2871 14.5629 15.2831L14.4538 15.2751C14.4175 15.2751 14.3848 15.2791 14.3557 15.2711C14.3193 15.2711 14.3193 15.2311 14.3193 15.1991C14.3121 15.193 14.303 15.1901 14.2939 15.1911ZM14.3666 15.3391L14.4029 15.3431H14.4502C14.4865 15.3511 14.5229 15.3511 14.5592 15.3511C14.5665 15.3511 14.5738 15.3591 14.5811 15.3671V15.4471C14.5811 15.4591 14.5811 15.4751 14.5738 15.4791C14.5719 15.4823 14.5694 15.485 14.5665 15.4871C14.5612 15.486 14.5561 15.4837 14.5517 15.4802C14.5473 15.4768 14.5437 15.4723 14.5411 15.4671V15.4111C14.5339 15.4044 14.525 15.4002 14.5156 15.3991L14.4211 15.3951L14.3484 15.3911C14.3375 15.3871 14.323 15.3911 14.3157 15.3751C14.3084 15.3671 14.3193 15.3511 14.3302 15.3471C14.3417 15.3414 14.3541 15.3387 14.3666 15.3391ZM14.7774 15.3511C14.781 15.3511 14.7846 15.3511 14.7846 15.3631L14.7919 15.3831C14.7919 15.3871 14.7919 15.3911 14.7846 15.3911C14.7664 15.3991 14.7483 15.3991 14.741 15.3911C14.741 15.3871 14.741 15.3711 14.7483 15.3671L14.7774 15.3511Z" fill="#C09300"/>
<path d="M14.613 13.0878C15.7981 12.0878 15.6963 10.6158 15.6963 10.6158L15.6054 10.6238C15.3546 10.6238 14.7621 10.4638 14.6239 10.2678C14.4785 10.4478 13.8678 10.6278 13.6206 10.6278L13.5298 10.6158C13.5298 10.6158 13.4243 12.0838 14.613 13.0878Z" fill="white" stroke="#C09300" stroke-width="0.11"/>
<path d="M15.6025 10.7176H15.5734C15.348 10.7176 14.8246 10.5936 14.621 10.4016C14.4102 10.5776 13.8758 10.7216 13.6541 10.7216C13.6443 10.7212 13.6346 10.7199 13.625 10.7176C13.627 10.9704 13.6588 11.2218 13.7195 11.4656C13.8653 12.053 14.1788 12.5732 14.6137 12.9496C15.0489 12.5718 15.3624 12.0502 15.508 11.4616C15.5684 11.2191 15.6002 10.9691 15.6025 10.7176Z" fill="white" stroke="#C09300" stroke-width="0.09"/>
<path d="M14.2284 10.5978C14.0332 10.6677 13.8302 10.7081 13.625 10.7178L13.6286 10.8818C13.641 11.078 13.6715 11.2723 13.7195 11.4618C13.8172 11.8551 13.9908 12.2208 14.2284 12.5337V10.5978ZM14.9773 10.5978V12.5658C15.2263 12.2456 15.4076 11.8685 15.508 11.4618C15.5559 11.2723 15.5864 11.078 15.5989 10.8818L15.6025 10.7218H15.5734C15.4353 10.7218 15.1954 10.6737 14.9773 10.5938V10.5978Z" fill="#C09300"/>
<path d="M15.0611 10.1193C15.0866 10.1233 15.0284 9.9793 15.0284 9.9793C15.0938 10.0513 15.3338 10.0713 15.3338 10.0713C15.1884 9.9993 15.043 9.4673 15.0611 9.0393C15.0757 8.6153 15.0066 8.4473 14.9521 8.3833C14.8794 8.3033 14.6431 8.2313 14.4904 8.2233C14.3995 8.2193 14.4177 8.2953 14.4177 8.2953C14.2541 8.2513 14.0906 8.2313 14.0179 8.2873C13.9524 8.3353 13.9379 8.5873 13.9888 8.5433C14.1087 8.4353 14.2141 8.5353 14.2869 8.6513C14.3523 8.7513 14.3486 9.0393 14.2541 9.3793C14.1704 9.63633 14.0475 9.87577 13.8906 10.0873C14.036 10.0873 14.2396 9.9473 14.2396 9.9473L14.1923 10.1673C14.345 10.0873 14.465 9.9633 14.465 9.9633L14.6104 10.1313C14.6576 10.0593 14.7558 9.9633 14.7558 9.9633C14.7558 9.9633 14.8757 10.1033 15.0611 10.1233V10.1193Z" fill="white" stroke="#C09300" stroke-width="0.12"/>
<path d="M14.4709 9.10472C14.4709 9.10472 14.391 9.76072 14.2383 9.94472M14.6018 9.08472C14.6018 9.08472 14.5654 9.75272 14.4637 9.96472M14.7145 9.11272C14.7145 9.11272 14.7145 9.84072 14.7508 9.96472M14.8599 9.14872C14.8599 9.14872 14.889 9.76072 15.0271 9.98072" stroke="#C09300" stroke-width="0.13"/>
<path d="M14.3227 8.7814C14.3195 8.73502 14.3071 8.68997 14.2864 8.6494C14.2137 8.5294 14.1082 8.4334 13.9883 8.5414C13.9883 8.5414 14.0283 8.4014 14.1191 8.3974C14.1846 8.3934 14.3409 8.4534 14.479 8.7094C14.479 8.7094 14.3772 8.6854 14.3518 8.7094C14.3082 8.7494 14.3263 8.7814 14.3263 8.7814H14.3227Z" fill="#C09300" stroke="#C09300" stroke-width="0.03"/>
<path d="M13.9727 8.3713C13.9836 8.3313 13.9981 8.2993 14.0199 8.2873C14.0926 8.2313 14.2526 8.2473 14.4161 8.2953C14.4161 8.2953 14.4016 8.2193 14.4888 8.2233C14.6415 8.2313 14.8742 8.3033 14.9469 8.3833C14.9701 8.41142 14.9886 8.44395 15.0014 8.4793C14.965 8.4233 14.8633 8.4273 14.8378 8.4313C14.8015 8.4353 14.776 8.4313 14.7251 8.4473C14.6997 8.4553 14.6633 8.4633 14.6415 8.4793C14.627 8.4953 14.6124 8.5433 14.5906 8.5433C14.5543 8.5433 14.5543 8.5353 14.5434 8.5233C14.5325 8.5033 14.5252 8.4793 14.5107 8.4833C14.4743 8.4873 14.4089 8.4553 14.3289 8.3833C14.2453 8.3113 14.2126 8.2953 14.1108 8.3033C14.0017 8.3113 13.9727 8.3793 13.9727 8.3793V8.3713Z" fill="#C09300" stroke="#C09300" stroke-width="0.03"/>
<path d="M14.571 8.47539C14.5951 8.47539 14.6146 8.4539 14.6146 8.42739C14.6146 8.40088 14.5951 8.37939 14.571 8.37939C14.5469 8.37939 14.5273 8.40088 14.5273 8.42739C14.5273 8.4539 14.5469 8.47539 14.571 8.47539Z" fill="white"/>
</g>
<defs>
<clipPath id="clip0_409_1826">
<rect width="29" height="24" rx="2" fill="white"/>
</clipPath>
</defs>
</svg>
