<svg width="29" height="23" viewBox="0 0 29 23" fill="none" xmlns="http://www.w3.org/2000/svg">
<g clip-path="url(#clip0_409_1864)">
<mask id="mask0_409_1864" style="mask-type:luminance" maskUnits="userSpaceOnUse" x="0" y="0" width="30" height="23">
<path d="M0.0742188 0H29.1522V23H0.0742188V0Z" fill="white"/>
</mask>
<g mask="url(#mask0_409_1864)">
<path fill-rule="evenodd" clip-rule="evenodd" d="M-1.74609 0H30.9698V23H-1.74609V0Z" fill="#199D00"/>
<path fill-rule="evenodd" clip-rule="evenodd" d="M6.49816 6.51914C6.46408 7.0582 6.41296 8.00156 6.85173 8.10039C7.37569 8.1543 7.08602 7.16602 7.27772 6.98633C7.31179 6.89649 7.37569 6.89649 7.37995 7.00879V7.84883C7.37995 8.11836 7.55035 8.19922 7.67814 8.25313C7.81446 8.24414 7.90818 8.25313 7.9593 8.38789L8.02745 9.83887C8.02745 9.83887 8.34268 9.9377 8.35972 9.02578C8.3725 8.48672 8.25749 8.04199 8.32565 7.93867C8.32565 7.83535 8.45344 7.83086 8.53864 7.88027C8.67496 7.9791 8.73459 8.10488 8.94759 8.05996C9.27134 7.96113 9.46729 7.79492 9.47155 7.53438C9.46516 7.27833 9.41464 7.02565 9.32246 6.78867C9.3395 6.74375 9.26282 6.62246 9.27986 6.57754C9.33524 6.67637 9.42469 6.66738 9.44173 6.57754C9.38636 6.38887 9.30116 6.20469 9.16484 6.12832C9.04983 6.02051 8.87943 6.03848 8.82405 6.26309C8.78997 6.51914 8.90925 6.82012 9.0839 7.07168C9.12224 7.16602 9.17336 7.32774 9.15206 7.47149C9.05834 7.52988 8.96463 7.50293 8.88369 7.41758C8.88369 7.41758 8.6281 7.21543 8.6281 7.16602C8.69625 6.70781 8.64088 6.65391 8.60254 6.52363C8.57698 6.34844 8.49604 6.29004 8.43214 6.17324C8.36824 6.10137 8.28305 6.10137 8.24045 6.17324C8.12543 6.37988 8.18081 6.82461 8.26175 7.02676C8.32139 7.21094 8.41084 7.32774 8.36824 7.32774C8.33417 7.43106 8.26175 7.4041 8.20637 7.28281C8.14403 7.02756 8.11395 6.76474 8.11691 6.50117C8.09561 6.29453 8.07005 5.8543 7.938 5.7375C7.86132 5.62969 7.7463 5.6836 7.7037 5.78242C7.69246 5.98311 7.69673 6.18442 7.71648 6.38438C7.80168 6.7168 7.8315 7.01328 7.8741 7.3502C7.88688 7.80391 7.62703 7.54785 7.6398 7.31875C7.69569 7.03073 7.69133 6.73333 7.62703 6.44727C7.58443 6.33047 7.53757 6.30352 7.43107 6.32149C7.35013 6.32149 7.1414 6.55957 7.08176 6.96387C7.08176 6.96387 7.03064 7.17051 7.00934 7.35469C6.97952 7.56133 6.85173 7.71406 6.75801 7.32774C6.68133 7.04473 6.63021 6.35742 6.50242 6.51914H6.49816Z" fill="white"/>
<path fill-rule="evenodd" clip-rule="evenodd" d="M7.92566 8.72373L6.5625 9.41553C6.57528 9.0876 7.20574 8.49912 7.64025 8.49463C7.91714 8.49912 7.84898 8.60693 7.9214 8.72373H7.92566Z" fill="white"/>
<path fill-rule="evenodd" clip-rule="evenodd" d="M7.67994 9.17113C6.96428 11.1252 9.3626 11.3993 9.63097 9.25199C9.65653 9.16215 9.75876 9.0768 9.7758 9.22055C9.72043 11.1657 7.9185 11.2959 7.61179 10.685C7.53963 10.4748 7.50357 10.2527 7.50529 10.0291C7.46269 9.64731 7.271 9.79555 7.24118 10.1729C7.21136 10.384 7.21988 10.4424 7.21988 10.6446C7.31359 12.1809 9.63523 11.5205 10.0144 10.2538C10.2146 9.55297 9.98028 9.03637 10.0868 9.03637C10.3168 9.29691 10.6406 9.07231 10.713 8.98246C10.7428 8.93754 10.8195 8.90609 10.8706 8.96449C11.0495 9.09926 11.3647 9.03637 11.4329 8.79828C11.4712 8.5602 11.5011 8.31762 11.5096 8.07055C11.3605 8.11547 11.254 8.14691 11.2412 8.2143L11.2114 8.42094C11.1986 8.48832 11.0751 8.48832 11.0665 8.40297C11.0112 8.13344 10.7811 8.10199 10.6406 8.51527C10.5511 8.59613 10.3807 8.6141 10.3637 8.49281C10.385 8.2143 10.2785 8.17836 10.0655 8.30863L9.861 6.68246C9.9462 6.68246 10.0314 6.74984 10.1123 6.64203C10.0271 6.35004 9.83544 5.75707 9.72895 5.71215C9.68209 5.64926 9.63949 5.68969 9.57133 5.70766C9.46057 5.74359 9.35834 5.84242 9.39242 6.04008C9.52021 6.88461 9.60541 7.52699 9.73747 8.37602C9.75877 8.47035 9.68209 8.60063 9.57985 8.58715C9.40945 8.46586 9.36686 8.21879 9.06866 8.22777C8.85567 8.22777 8.61712 8.47484 8.5873 8.70844C8.54896 8.89711 8.53618 9.09926 8.5873 9.26098C8.73639 9.44965 8.91531 9.43168 9.07292 9.39125C9.20072 9.33285 9.30722 9.19809 9.35408 9.22953C9.3839 9.26996 9.35834 9.71918 8.74491 10.0606C8.3743 10.2403 8.07611 10.2762 7.9185 9.95727C7.82052 9.75512 7.92702 8.99594 7.67994 9.17113Z" fill="white"/>
<path fill-rule="evenodd" clip-rule="evenodd" d="M10.7337 7.18702C10.8742 7.13312 11.5558 6.30656 11.5558 6.30656L11.4536 6.21671C11.4152 6.18527 11.4195 6.14933 11.4536 6.11788C11.624 6.01007 11.5686 5.78546 11.4834 5.67765C11.4256 5.64792 11.3619 5.63284 11.2976 5.63362C11.2332 5.6344 11.17 5.65101 11.1128 5.68214C10.9935 5.80343 10.968 5.9966 11.0617 6.11339C11.1511 6.15831 11.2406 6.25714 11.181 6.31105C10.8998 6.6255 10.1373 7.16906 10.2267 7.18702C10.2438 7.21398 10.7166 7.21398 10.7294 7.18702H10.7337ZM6.60158 10.1069C6.34599 10.5382 6.32469 11.1806 6.46526 11.3737C6.54194 11.4636 6.66548 11.504 6.75494 11.4726C6.91681 11.4007 6.98923 11.0548 6.95089 10.9335C6.89551 10.8437 6.85291 10.8302 6.79753 10.9021C6.68678 11.1446 6.63992 10.9784 6.62714 10.8437C6.61493 10.6154 6.62636 10.3865 6.66122 10.1609C6.69104 9.97218 6.66122 10.0261 6.60158 10.1069ZM17.5537 9.41964C17.3067 8.85363 16.9616 8.29659 16.8551 8.08546C16.5231 7.53204 16.1707 6.99257 15.7987 6.46827C15.5345 6.13585 16.2332 6.60753 15.7135 5.94269L15.3343 5.60577C15.2491 5.54288 15.0447 5.42609 15.0106 5.61476C14.9935 5.78546 15.0021 5.87531 15.0276 6.01456C15.0489 6.10441 15.1767 6.26163 15.2406 6.35148C16.1139 7.57131 16.881 8.87184 17.5324 10.2372C17.6432 10.1788 17.6176 9.51398 17.5537 9.41964Z" fill="white"/>
<path fill-rule="evenodd" clip-rule="evenodd" d="M16.4701 11.2966C16.4189 11.355 16.5893 11.6021 16.8109 11.6021C17.1772 11.5571 17.501 11.3415 17.7991 10.7665C17.9203 10.5752 17.9976 10.3568 18.0249 10.1286C18.061 9.03811 17.9781 7.94683 17.7778 6.87628C17.7651 6.78644 17.7778 6.67862 17.7864 6.65167C17.8119 6.62023 17.8929 6.65167 17.9355 6.5753C17.9994 6.50792 17.7651 5.9464 17.6373 5.73526C17.5947 5.63644 17.5734 5.57355 17.4967 5.74425C17.4042 5.93261 17.3601 6.14326 17.3689 6.35519C17.5436 7.63546 17.5989 8.75401 17.7097 10.0343C17.7225 10.1601 17.7054 10.3398 17.6245 10.4116C17.3031 10.789 16.9097 11.0906 16.4701 11.2966ZM21.4328 11.2921C21.1687 11.4538 21.1687 11.638 21.3817 11.6425C21.7481 11.5976 22.1826 11.5661 22.4808 11.09C22.5861 10.8657 22.647 10.6211 22.6597 10.3712C22.7133 9.29748 22.6461 8.22083 22.4595 7.16378C22.4509 7.07394 22.4126 6.8628 22.4254 6.83585C22.4509 6.77296 22.5702 6.84034 22.6128 6.76847C22.6725 6.70108 22.3018 6.19796 22.1698 5.98233C22.1272 5.88351 22.1101 5.82062 22.0292 5.99132C21.9434 6.18141 21.9166 6.39517 21.9525 6.60226C22.1485 7.99484 22.2933 9.03702 22.3231 10.2679C22.3061 10.3847 22.3018 10.4476 22.2507 10.5958C22.1357 10.7485 22.0079 10.9462 21.8886 11.0405C21.7694 11.1304 21.5138 11.2202 21.4328 11.2921Z" fill="white"/>
<path fill-rule="evenodd" clip-rule="evenodd" d="M21.6269 10.0485C21.6269 9.72054 21.6312 9.44202 21.6227 9.19495C21.6199 8.98571 21.5764 8.77929 21.4949 8.58851C21.4182 8.40433 21.4651 8.25609 21.4267 8.05843C21.3926 7.86077 21.4012 7.56429 21.35 7.33519C21.333 7.24534 21.2904 6.95335 21.3032 6.92191C21.3245 6.85902 21.4054 6.92191 21.448 6.85003C21.5076 6.78265 21.235 6.04144 21.0987 5.8303C21.0518 5.73597 20.9581 5.76741 20.8516 5.92015C20.7451 6.02347 20.7835 6.25257 20.8261 6.47269C21.0859 7.92366 21.2861 9.23987 21.2435 10.619C21.2265 10.7358 21.6269 10.2686 21.6269 10.0485ZM19.6802 8.25159C19.514 8.24261 19.169 7.9057 19.0667 7.71253C19.05 7.66532 19.0429 7.61493 19.0458 7.56462C19.0487 7.51432 19.0617 7.46523 19.0838 7.42054C19.1477 7.37562 19.2414 7.3307 19.3138 7.37562C19.3138 7.37562 19.3862 7.48343 19.3734 7.49691C19.4586 7.54183 19.5012 7.51937 19.5098 7.47894C19.514 7.41155 19.4842 7.37113 19.4842 7.29925C19.5225 7.09261 19.7398 7.06116 19.825 7.19144C19.8846 7.2723 19.9102 7.43851 19.9145 7.55081C19.9145 7.60921 19.8293 7.54183 19.7739 7.55081C19.727 7.56878 19.7142 7.63167 19.71 7.68558C19.7015 7.83382 19.6844 8.07191 19.6802 8.2471V8.25159ZM16.6216 10.4078C16.6642 9.96761 16.6045 9.18148 16.6003 8.92093C16.5775 8.25086 16.5249 7.58228 16.4427 6.91741C16.3915 6.54007 16.5875 6.95784 16.5619 6.73773C16.498 6.36487 16.3021 6.10882 16.0678 5.77191C15.9954 5.6596 15.9954 5.63714 15.8803 5.79886C15.7526 6.09984 15.8633 6.31097 15.8974 6.54905C16.0635 7.32171 16.1615 8.03148 16.2084 8.73675C16.2574 9.46939 16.2631 10.2045 16.2254 10.9379C16.3532 10.9424 16.5491 10.7268 16.6216 10.4078Z" fill="white"/>
<path fill-rule="evenodd" clip-rule="evenodd" d="M22.1955 9.70372C21.9016 9.18263 21.4628 8.62559 21.3435 8.41446C20.9485 7.83276 20.5336 7.26637 20.0997 6.71641C19.7376 6.31212 20.27 6.64903 20.0315 6.33458C19.8313 6.10548 19.7759 6.02911 19.6012 5.88985C19.516 5.83145 19.4649 5.71915 19.4309 5.91231C19.4173 6.07963 19.4144 6.24772 19.4223 6.41544C19.4223 6.49181 19.499 6.64005 19.5672 6.72989C20.449 7.8754 21.416 9.04337 22.1913 10.5123C22.302 10.4539 22.2637 9.79356 22.1913 9.70372H22.1955Z" fill="white"/>
<path fill-rule="evenodd" clip-rule="evenodd" d="M8.92978 8.74636C8.90848 8.78679 8.86162 8.8362 8.87866 8.88561C8.90848 8.93054 8.9383 8.94401 8.98941 8.94401C9.03627 8.94401 9.10443 8.95749 9.11721 8.93054C9.14277 8.89909 9.15981 8.84069 9.14277 8.78229C9.09165 8.64753 8.95533 8.70143 8.92978 8.74636Z" fill="#1BA400"/>
<path fill-rule="evenodd" clip-rule="evenodd" d="M18.7937 16.2845C19.1856 16.3025 19.4412 16.307 19.7862 16.3474L20.1952 16.3025C20.6467 16.2576 20.6638 16.9808 20.6638 16.9808C20.6638 17.4076 20.5062 17.43 20.3059 17.475C20.1909 17.4929 20.1355 17.4031 20.0717 17.3132C19.9753 17.3458 19.8727 17.352 19.7735 17.3312C19.6073 17.3222 19.4454 17.3222 19.2836 17.3087C19.1132 17.2953 19.0195 17.3312 18.8448 17.3132C18.8107 17.3716 18.7596 17.4525 18.6574 17.43C18.5722 17.4166 18.4657 17.1605 18.4955 16.9584C18.5594 16.8146 18.5381 16.864 18.5381 16.8011C16.9364 16.7562 15.3219 16.6798 13.7542 16.7023C12.5274 16.7068 11.3176 16.7607 10.1035 16.8146C9.45603 16.8056 8.96188 16.6978 8.62109 16.1722C8.65517 16.1722 10.2739 16.2666 10.7468 16.2351C11.62 16.2261 12.4209 16.1498 13.3112 16.1228C15.0663 16.1542 16.8086 16.1542 18.5637 16.2845C18.3933 16.1632 18.3933 15.8802 18.6488 15.8084C18.6701 15.7904 18.6829 15.9476 18.7213 15.9431C18.93 15.9296 18.8363 16.2261 18.7937 16.2845ZM11.7393 6.07827C11.4752 6.87788 11.8927 7.75835 12.1824 7.673C12.3953 7.76284 12.5231 7.34058 12.6083 6.88237C12.6722 6.7521 12.7148 6.73862 12.7447 6.80601C12.7361 7.41694 12.7873 7.5562 12.9364 7.74038C13.2686 8.00991 13.5455 7.77632 13.5668 7.75386L13.8224 7.47983C13.882 7.41245 13.9587 7.41245 14.0397 7.46636C14.1206 7.54272 14.1078 7.673 14.2782 7.76284C14.423 7.82573 14.7255 7.78081 14.7979 7.65054C14.8916 7.47534 14.9172 7.41694 14.9598 7.35405C15.028 7.25972 15.143 7.30015 15.143 7.33159C15.1302 7.3855 15.062 7.43491 15.1089 7.53374C15.1941 7.59663 15.2111 7.5562 15.258 7.54272C15.4284 7.45288 15.5562 7.06655 15.5562 7.06655C15.5604 6.9228 15.4838 6.93179 15.4326 6.96773L15.3006 7.06206C15.2154 7.07554 15.0578 7.13394 14.9768 7.00366C14.8959 6.85093 14.8959 6.63081 14.8363 6.47358C14.8363 6.4646 14.7255 6.22651 14.8277 6.21304C14.8789 6.22202 14.9854 6.25347 15.0024 6.15913C15.0535 6.0648 14.8916 5.79976 14.7766 5.66499C14.6786 5.55269 14.5423 5.53921 14.4103 5.65601C14.3166 5.74585 14.3293 5.84468 14.3123 5.93901C14.2961 6.00662 14.2954 6.0773 14.3102 6.14525C14.3251 6.21319 14.355 6.27646 14.3975 6.32983C14.4912 6.51851 14.6573 6.76558 14.602 7.11597C14.602 7.11597 14.504 7.27769 14.3336 7.25522C14.2612 7.24175 14.1462 7.2103 14.0865 6.72515C14.0397 6.36577 14.095 5.85366 13.9502 5.61558C13.8948 5.46733 13.8565 5.32808 13.7287 5.57515C13.6946 5.67397 13.5455 5.82222 13.652 6.12319C13.7528 6.39441 13.7822 6.6893 13.7372 6.97671C13.6733 7.07554 13.6605 7.10698 13.5796 7.20132C13.4688 7.33608 13.3453 7.30015 13.2516 7.25073C13.1664 7.19233 13.0982 7.16089 13.0556 6.95874C13.0641 6.64429 13.0812 6.12769 13.0258 6.01987C12.9449 5.84917 12.8128 5.91206 12.7574 5.96597C12.504 6.26283 12.3344 6.62847 12.2676 7.02163C12.1909 7.28218 12.1099 7.20581 12.0546 7.10249C11.9182 6.96773 11.9055 5.90308 11.7393 6.07827Z" fill="white"/>
<path fill-rule="evenodd" clip-rule="evenodd" d="M12.5398 7.81979C12.6633 7.72995 12.6079 7.66706 12.7869 7.85573C13.0178 8.28662 13.1519 8.76765 13.1788 9.26178C13.1702 9.37858 13.2469 9.45046 13.2853 9.4235C13.3023 9.15397 13.9285 8.77663 14.5036 8.72272C14.5888 8.70026 14.5462 8.52507 14.559 8.43522C14.5249 8.09831 14.7379 7.79284 15.0361 7.77038C15.445 7.83327 15.5813 8.06237 15.5899 8.40827C15.543 9.0821 14.8785 9.1944 14.5078 9.24831C14.4525 9.27077 14.4269 9.29772 14.5078 9.32917L16.067 9.33815L16.1479 9.38307C16.1564 9.428 16.1223 9.39206 16.0627 9.49987C15.9769 9.65876 15.9233 9.83465 15.9051 10.0165C15.4408 10.1782 14.9594 10.2411 14.4738 10.3085C14.3034 10.3983 14.2182 10.5196 14.2523 10.6544C14.3119 10.8026 14.6868 10.9553 14.6868 10.9598C14.7592 11.0048 14.8401 11.1171 14.6655 11.3462C13.9072 11.3102 13.3151 10.9688 13.1106 10.4882C13.051 10.4387 12.9828 10.4882 12.9402 10.551C12.642 10.9553 12.3523 11.3147 11.8454 11.5124C11.5472 11.5932 11.2363 11.463 11.0914 11.2563C10.9934 11.135 10.9977 11.0048 10.9636 10.9778C10.7975 11.0542 9.39173 11.6831 9.57064 11.3866C9.91143 11.0048 10.5078 10.7173 11.0275 10.3399C11.0659 10.2096 11.134 9.77839 11.3385 9.63913C11.3513 9.63913 11.3087 9.89069 11.3129 9.9985C11.3129 10.0883 11.3044 10.1198 11.3215 10.0973C11.3598 10.0749 11.9903 9.54928 12.0456 9.38757C12.1053 9.29772 12.0584 9.06413 12.0584 9.05514C11.9391 8.73171 11.773 8.70475 11.7134 8.54303C11.658 8.3319 11.6835 8.08932 11.7986 8.01745C11.9008 7.92311 12.0201 7.9321 12.1351 8.03991C12.2629 8.1612 12.3736 8.39928 12.4077 8.57448C12.3864 8.64186 12.2373 8.52956 12.1947 8.561C12.2767 8.66036 12.3312 8.78157 12.3523 8.91139C12.4375 9.27975 12.412 9.4235 12.3268 9.66159C12.0456 10.286 11.6878 10.4702 11.3726 10.7038C11.3641 10.7038 11.3598 10.861 11.4748 10.9464C11.5174 10.9913 11.6835 11.0137 11.8752 10.9464C12.2848 10.7065 12.6159 10.3416 12.8252 9.89967C12.8614 9.56337 12.8265 9.22279 12.723 8.90241C12.5994 8.60143 12.4546 8.17468 12.4546 8.16569C12.4503 7.97702 12.4631 7.91413 12.5398 7.81979ZM8.45881 6.08581C8.63773 6.17565 8.97852 6.13522 8.96148 5.82975L8.95296 5.6905C8.91888 5.60065 8.81664 5.62311 8.79534 5.71296C8.78682 5.7444 8.80812 5.79382 8.78256 5.80729C8.76553 5.82526 8.71015 5.81628 8.71015 5.73093C8.71015 5.70397 8.69311 5.67702 8.68033 5.65905C8.67181 5.65007 8.66329 5.65007 8.64199 5.65007C8.61643 5.65007 8.61643 5.65456 8.60365 5.67702C8.59939 5.69948 8.59087 5.72194 8.59087 5.74889C8.59087 5.78034 8.57383 5.78932 8.55679 5.79382C8.53123 5.79382 8.53549 5.79382 8.51419 5.78483C8.50567 5.77135 8.49289 5.76686 8.49289 5.73991L8.48011 5.66803C8.47159 5.65456 8.45455 5.64557 8.43751 5.64108C8.33954 5.64108 8.33102 5.76237 8.33954 5.80729C8.33102 5.81628 8.32676 6.02741 8.45881 6.08581Z" fill="white"/>
<path fill-rule="evenodd" clip-rule="evenodd" d="M13.7227 8.4318C13.9016 8.52164 14.3318 8.47223 14.2253 8.18023L14.2168 8.03648C14.1785 7.94664 14.0805 7.9691 14.0592 8.06344C14.0507 8.09039 14.072 8.1398 14.0422 8.15328C14.0294 8.17125 13.9697 8.16227 13.974 8.08141C13.974 8.05445 13.957 8.02301 13.9442 8.00504C13.9314 8.00055 13.9272 7.99605 13.9016 7.99605C13.8803 7.99605 13.8803 8.00504 13.8675 8.0275C13.859 8.04996 13.8547 8.07242 13.8547 8.09938C13.8505 8.12633 13.8377 8.13531 13.8164 8.1443C13.7951 8.1443 13.7994 8.1443 13.7823 8.13082C13.7695 8.11734 13.7568 8.11285 13.7568 8.09039L13.744 8.01852C13.7355 8.00504 13.7184 7.99605 13.7014 7.99156C13.6034 7.99156 13.5949 8.10836 13.5991 8.15328C13.5949 8.16227 13.5906 8.37789 13.7269 8.4318H13.7227ZM16.7898 7.46149C16.9687 7.55133 17.3052 7.5109 17.2925 7.20992L17.2839 7.06617C17.2456 6.97633 17.1476 6.99879 17.1263 7.08863C17.1178 7.12008 17.1391 7.16949 17.1093 7.18746C17.0965 7.20094 17.0369 7.19195 17.0411 7.1066C17.0411 7.07965 17.0241 7.0527 17.0113 7.03473C16.9985 7.02574 16.9943 7.02574 16.9687 7.02574C16.9474 7.02574 16.9474 7.03473 16.9346 7.05719L16.9218 7.12457C16.9176 7.15602 16.9048 7.16949 16.8835 7.16949C16.8622 7.16949 16.8665 7.16949 16.8494 7.16051C16.8366 7.14703 16.8239 7.14254 16.8239 7.12008C16.8239 7.09762 16.8196 7.06168 16.8111 7.04371C16.8026 7.03023 16.7855 7.02574 16.7685 7.02125C16.6705 7.02125 16.662 7.13805 16.6663 7.18297C16.662 7.19195 16.6577 7.40309 16.794 7.46149H16.7898ZM18.3787 9.90074C18.0678 10.2736 18.2041 10.889 18.2765 11.0238C18.3787 11.2394 18.4597 11.3787 18.6599 11.4865C18.8431 11.6257 18.9879 11.5404 19.0646 11.4416C19.2477 11.2394 19.252 10.7228 19.3372 10.624C19.3968 10.4353 19.5502 10.4668 19.6226 10.5521C19.6904 10.6535 19.7812 10.7354 19.8867 10.7902C20.0571 10.9474 20.2616 10.9789 20.4661 10.8351C20.6024 10.7498 20.6918 10.6464 20.7728 10.4353C20.858 10.1838 20.8154 9.01578 20.7941 8.32398L20.6152 7.35816C20.6152 7.34918 20.5939 6.89996 20.5726 6.79664C20.5726 6.75172 20.5598 6.73824 20.6024 6.74274C20.6492 6.78766 20.6535 6.78766 20.6876 6.80113C20.7302 6.81012 20.7728 6.72477 20.743 6.65289L20.317 5.81734C20.2829 5.78141 20.236 5.74547 20.1807 5.82633C20.148 5.85752 20.122 5.89568 20.1043 5.93827C20.0867 5.98087 20.0779 6.02693 20.0784 6.0734C20.0912 6.27106 20.121 6.4732 20.1338 6.67086L20.3042 7.68609C20.3596 8.40484 20.3723 8.99781 20.4277 9.72105C20.4192 10.0265 20.3298 10.2916 20.2446 10.332C20.2446 10.332 20.1168 10.4084 20.0316 10.323C19.9677 10.2961 19.7163 9.87828 19.7163 9.87828C19.5885 9.75699 19.5033 9.78844 19.4139 9.87828C19.1583 10.1388 19.0475 10.615 18.8729 10.9474C18.8303 11.0238 18.7025 11.0822 18.5662 10.9429C18.2168 10.4353 18.4213 9.71656 18.3787 9.90074ZM16.8707 5.69156C17.0326 5.75895 17.1434 6.10484 17.1093 6.27555C17.0752 6.4777 16.99 6.70231 16.9304 6.67535C16.8622 6.6484 16.973 6.46871 16.9091 6.28004C16.875 6.15426 16.6535 5.92965 16.679 5.86676C16.6364 5.7275 16.7727 5.66461 16.8707 5.68707V5.69156Z" fill="white"/>
<path fill-rule="evenodd" clip-rule="evenodd" d="M18.8955 10.1081C18.9253 9.69478 18.8699 9.44322 18.8614 9.20064C18.8529 8.95806 18.6015 7.10728 18.5504 6.92759C18.4865 6.5772 18.7932 6.88267 18.7592 6.67603C18.6527 6.42447 18.3928 6.05162 18.3119 5.8315C18.2607 5.74166 18.282 5.65181 18.1713 5.80904C18.0759 6.08471 18.0424 6.37992 18.0733 6.67154C18.3374 8.12252 18.6058 9.32642 18.5632 10.7055C18.691 10.7055 18.8316 10.4045 18.8955 10.1081ZM21.6388 6.27623C21.7879 6.35259 21.8731 6.78384 21.8561 6.90513C21.8263 7.12974 21.7496 7.37232 21.6942 7.34087C21.6303 7.31392 21.707 7.00845 21.6772 6.91412C21.6431 6.77935 21.4429 6.53677 21.4642 6.4649C21.4216 6.31216 21.5494 6.24927 21.6388 6.27623ZM10.7463 9.32642C10.8869 9.38482 10.9721 9.69927 10.9593 9.78912C10.9252 9.95533 10.8528 10.135 10.7974 10.1081C10.7421 10.0901 10.8102 9.86548 10.7847 9.79361C10.7719 9.6274 10.5759 9.53755 10.5802 9.46568C10.5461 9.33091 10.6654 9.30845 10.7506 9.32642H10.7463Z" fill="white"/>
<path fill-rule="evenodd" clip-rule="evenodd" d="M14.1398 9.80205C14.3187 9.81104 14.4082 9.96377 14.242 10.0267C14.0716 10.0851 13.914 10.1345 13.9098 10.386C13.9737 10.7454 13.8246 10.6196 13.7394 10.5747C13.6371 10.4938 13.3475 10.3052 13.3049 9.90088C13.3006 9.80654 13.373 9.72119 13.488 9.72119C13.6584 9.77061 13.914 9.7751 14.1398 9.80205Z" fill="#1B9D00"/>
<path fill-rule="evenodd" clip-rule="evenodd" d="M7.00536 5.58617C7.20984 5.64906 7.22262 5.97249 7.20984 6.06683C7.18002 6.23753 7.1076 6.42171 7.05648 6.39925C6.99684 6.37679 7.05648 6.1432 7.02666 6.07132C6.99684 5.97249 6.82219 5.78382 6.83923 5.72992C6.80089 5.61761 6.92442 5.5637 7.00536 5.58617ZM11.0906 7.09554C10.9287 7.18538 10.8691 7.45492 10.967 7.61663C11.0608 7.7514 11.2056 7.70199 11.2226 7.70199C11.3803 7.71995 11.474 7.39203 11.474 7.39203C11.474 7.39203 11.4782 7.30218 11.2951 7.47738C11.2141 7.49085 11.2099 7.45941 11.1886 7.41449C11.1691 7.32896 11.1765 7.23907 11.2099 7.15843C11.2397 7.07757 11.18 7.04163 11.0906 7.09554ZM12.2834 5.46038C12.1982 5.51878 12.0405 5.69398 12.0363 5.89163C12.032 6.00394 12.0107 6.00394 12.0789 6.07132C12.1343 6.15218 12.1811 6.14769 12.2834 6.08929C12.3088 6.07238 12.3307 6.05007 12.3476 6.02378C12.3644 5.99748 12.3759 5.96778 12.3813 5.93656C12.4069 5.81077 12.2535 5.99945 12.2365 5.8557C12.2024 5.72093 12.3004 5.66702 12.3941 5.54124C12.3941 5.4514 12.3941 5.393 12.2791 5.46038H12.2834ZM13.2376 5.64007C13.2 5.80365 13.1772 5.9706 13.1694 6.1387C13.1438 6.26449 13.2972 6.31839 13.3611 6.15667C13.4633 5.86468 13.4633 5.7389 13.4719 5.61761C13.442 5.42445 13.3185 5.42894 13.2376 5.64007ZM19.2866 8.88792C19.3036 8.86546 20.1386 8.24105 20.1386 8.24105C20.2238 8.2096 20.2025 8.56449 20.1641 8.55999C19.9052 8.82315 19.6074 9.04012 19.2823 9.20238C19.2397 9.23382 19.2014 8.96429 19.2823 8.88792H19.2866ZM20.0406 8.87894C20.1897 8.95531 20.2493 9.40902 20.2323 9.53031C20.2323 9.77288 20.0917 9.96156 20.0321 9.9346C19.9724 9.90316 20.0406 9.63363 20.0108 9.53929C19.9767 9.40452 19.8532 9.15745 19.8745 9.08558C19.8319 8.93285 19.9511 8.85199 20.0449 8.87894H20.0406ZM15.0991 10.8285C15.1682 10.7435 15.2486 10.6694 15.3377 10.6084C15.4229 10.5635 15.4996 10.6444 15.4953 10.6399C15.5081 10.7297 15.4442 10.8061 15.4655 10.9229C15.4825 10.9678 15.4953 11.0217 15.5762 11.0037C15.7083 10.8914 15.8318 10.8825 15.9596 10.878C16.0661 10.8825 16.0704 11.0666 16.0022 11.0666C15.7594 11.1205 15.6529 11.1924 15.4783 11.2598C15.3931 11.3137 15.3249 11.2463 15.3249 11.2418C15.3249 11.2373 15.278 11.1924 15.3079 11.0756C15.3164 10.9858 15.2823 10.9319 15.2056 10.9409C15.1545 10.9768 15.1034 10.9948 15.0778 10.9274C15.0651 10.8825 15.0608 10.8555 15.0991 10.8285ZM20.9181 11.0711C20.9522 11.116 20.9778 11.161 20.9139 11.2418L20.7563 11.3856C20.7307 11.4305 20.7137 11.5114 20.7989 11.5338C20.9522 11.5787 21.31 11.3317 21.31 11.3272C21.3697 11.2823 21.3526 11.1924 21.3441 11.1924C21.31 11.152 21.2334 11.1789 21.1822 11.17C21.1567 11.17 21.0757 11.161 21.1141 11.0801C21.1427 11.0404 21.1657 10.9965 21.1822 10.9498C21.2035 10.8959 21.1822 10.86 21.097 10.8285C21.0076 10.8106 20.9692 10.8196 20.8713 10.8285C20.8201 10.8375 20.8031 10.8645 20.7903 10.9319C20.7946 11.0352 20.8542 11.0307 20.9181 11.0666V11.0711Z" fill="white"/>
<path fill-rule="evenodd" clip-rule="evenodd" d="M15.1274 8.5195C15.1061 8.56442 15.0294 8.56442 14.957 8.5195C14.8846 8.47457 14.842 8.4027 14.8675 8.36227C14.8931 8.32184 14.9655 8.32184 15.0379 8.36227C15.1104 8.4027 15.1487 8.47907 15.1274 8.5195ZM11.3361 6.11168C11.2935 6.12516 11.2339 6.08473 11.2083 6.02184C11.1827 5.95895 11.1955 5.90504 11.2381 5.89157C11.2807 5.87809 11.3361 5.92301 11.3659 5.98141C11.3957 6.03981 11.3787 6.1027 11.3318 6.11618L11.3361 6.11168Z" fill="#259F00"/>
<path fill-rule="evenodd" clip-rule="evenodd" d="M18.8358 16.8457C19.2362 16.8637 19.6111 16.8457 20.0072 16.8682C20.0796 16.9355 20.0285 17.0928 19.9817 17.0838L19.6494 17.0703C19.6451 16.9355 19.3214 16.958 19.3299 17.0748C19.1553 17.0973 18.9976 17.0703 18.8187 17.0613C18.7676 16.9939 18.7761 16.8727 18.8358 16.8457Z" fill="#209000"/>
</g>
</g>
<defs>
<clipPath id="clip0_409_1864">
<rect width="29" height="23" rx="2" fill="white"/>
</clipPath>
</defs>
</svg>
