<svg width="17" height="16" viewBox="0 0 17 16" fill="none" xmlns="http://www.w3.org/2000/svg">
<g clip-path="url(#clip0_409_1820)">
<path d="M15.7122 14.6654L14.3789 13.332M8.71224 13.9987C9.54394 13.9987 10.3675 13.8349 11.1359 13.5166C11.9043 13.1983 12.6025 12.7318 13.1906 12.1437C13.7787 11.5556 14.2452 10.8574 14.5635 10.089C14.8818 9.32063 15.0456 8.49707 15.0456 7.66536C15.0456 6.83366 14.8818 6.0101 14.5635 5.2417C14.2452 4.47331 13.7787 3.77513 13.1906 3.18702C12.6025 2.59892 11.9043 2.13241 11.1359 1.81413C10.3675 1.49585 9.54394 1.33203 8.71224 1.33203C7.03253 1.33203 5.42163 1.99929 4.2339 3.18702C3.04617 4.37475 2.37891 5.98566 2.37891 7.66536C2.37891 9.34507 3.04617 10.956 4.2339 12.1437C5.42163 13.3314 7.03253 13.9987 8.71224 13.9987Z" stroke="#8C8C8C" stroke-width="1.5" stroke-linecap="round" stroke-linejoin="round"/>
</g>
<defs>
<clipPath id="clip0_409_1820">
<rect width="15.9556" height="16" fill="white" transform="translate(0.960938)"/>
</clipPath>
</defs>
</svg>
