<svg width="22" height="22" viewBox="0 0 22 22" fill="none" xmlns="http://www.w3.org/2000/svg">
<g clip-path="url(#clip0_409_666)">
<path d="M11.0013 16.9584C12.5816 16.9584 14.0971 16.3307 15.2145 15.2133C16.3319 14.0959 16.9596 12.5803 16.9596 11.0001C16.9596 9.41983 16.3319 7.90431 15.2145 6.7869C14.0971 5.6695 12.5816 5.04175 11.0013 5.04175C9.42105 5.04175 7.90553 5.6695 6.78812 6.7869C5.67072 7.90431 5.04297 9.41983 5.04297 11.0001C5.04297 12.5803 5.67072 14.0959 6.78812 15.2133C7.90553 16.3307 9.42105 16.9584 11.0013 16.9584Z" stroke="#A1A1A1" stroke-width="1.5" stroke-linecap="round" stroke-linejoin="round"/>
<path d="M17.5437 17.5449L17.4245 17.4258M17.4245 4.57409L17.5437 4.45492M4.4537 17.5449L4.57286 17.4258M10.9987 1.90659V1.83325M10.9987 20.1666V20.0933M1.90536 10.9999H1.83203M20.1654 10.9999H20.092M4.57286 4.57409L4.4537 4.45492" stroke="#A1A1A1" stroke-width="2" stroke-linecap="round" stroke-linejoin="round"/>
</g>
<defs>
<clipPath id="clip0_409_666">
<rect width="22" height="22" fill="white"/>
</clipPath>
</defs>
</svg>
