<svg width="16" height="4" viewBox="0 0 16 4" fill="none" xmlns="http://www.w3.org/2000/svg">
<path fill-rule="evenodd" clip-rule="evenodd" d="M1.89605 0.000795292C2.94413 0.000795201 3.80078 0.850092 3.80078 1.90079C3.80078 2.95148 2.96118 3.80078 1.915 3.80078L1.89605 3.80078C0.847975 3.80078 0.000795767 2.95148 0.000795675 1.90079C0.000795583 0.850093 0.847974 0.000795384 1.89605 0.000795292Z" fill="black"/>
<path fill-rule="evenodd" clip-rule="evenodd" d="M7.90481 0.000795292C8.95341 0.000795201 9.80859 0.850092 9.80859 1.90079C9.80859 2.95148 8.97047 3.80078 7.92187 3.80078L7.90481 3.80078C6.85621 3.80078 6.00861 2.95148 6.00861 1.90079C6.00861 0.850093 6.85621 0.000795384 7.90481 0.000795292Z" fill="black"/>
<path fill-rule="evenodd" clip-rule="evenodd" d="M13.9117 0.000795292C14.9598 0.000795201 15.8164 0.850092 15.8164 1.90079C15.8164 2.95148 14.9768 3.80078 13.9287 3.80078L13.9117 3.80078C12.8636 3.80078 12.0164 2.95148 12.0164 1.90079C12.0164 0.850093 12.8636 0.000795384 13.9117 0.000795292Z" fill="black"/>
</svg>
