<svg width="10" height="13" viewBox="0 0 10 13" fill="none" xmlns="http://www.w3.org/2000/svg">
<path fill-rule="evenodd" clip-rule="evenodd" d="M5.10751 4.4585C4.54764 4.4585 4.09219 4.91641 4.09219 5.47991C4.09219 6.04283 4.54764 6.50016 5.10751 6.50016C5.66738 6.50016 6.12283 6.04283 6.12283 5.47991C6.12283 4.91641 5.66738 4.4585 5.10751 4.4585ZM5.10751 7.37516C4.06783 7.37516 3.22192 6.52525 3.22192 5.47991C3.22192 4.434 4.06783 3.5835 5.10751 3.5835C6.14719 3.5835 6.99309 4.434 6.99309 5.47991C6.99309 6.52525 6.14719 7.37516 5.10751 7.37516Z" fill="#9E9E9E"/>
<mask id="mask0_863_730" style="mask-type:luminance" maskUnits="userSpaceOnUse" x="0" y="0" width="10" height="13">
<path fill-rule="evenodd" clip-rule="evenodd" d="M0.320679 0.666748H9.89336V12.0417H0.320679V0.666748Z" fill="white"/>
</mask>
<g mask="url(#mask0_863_730)">
<path fill-rule="evenodd" clip-rule="evenodd" d="M5.10692 1.54175C2.94749 1.54175 1.1907 3.325 1.1907 5.516C1.1907 8.30375 4.45364 11.0197 5.10692 11.1644C5.7602 11.0192 9.02314 8.30316 9.02314 5.516C9.02314 3.325 7.26635 1.54175 5.10692 1.54175ZM5.10692 12.0417C4.06608 12.0417 0.320435 8.80308 0.320435 5.516C0.320435 2.842 2.46768 0.666748 5.10692 0.666748C7.74616 0.666748 9.89341 2.842 9.89341 5.516C9.89341 8.80308 6.14776 12.0417 5.10692 12.0417Z" fill="#9E9E9E"/>
</g>
</svg>
