<svg width="24" height="24" viewBox="0 0 24 24" fill="none" xmlns="http://www.w3.org/2000/svg">
<path d="M12 6C13.1046 6 14 5.10457 14 4C14 2.89543 13.1046 2 12 2C10.8954 2 10 2.89543 10 4C10 5.10457 10.8954 6 12 6Z" fill="black"/>
<path d="M14.9468 7.684C14.8809 7.48471 14.7538 7.3113 14.5835 7.18848C14.4133 7.06567 14.2087 6.99971 13.9988 7H9.99878C9.78891 6.99986 9.58434 7.06588 9.41415 7.18867C9.24396 7.31147 9.11681 7.48479 9.05078 7.684L7.05078 13.684L8.82578 14.277L7.99878 18H9.99878V22H13.9988V18H15.9988L15.1718 14.276L16.9468 13.683L14.9468 7.684Z" fill="black"/>
</svg>
