<svg width="24" height="22" viewBox="0 0 24 22" fill="none" xmlns="http://www.w3.org/2000/svg">
<path d="M17.5275 2.00155C18.1515 2.00103 18.7692 2.12507 19.3446 2.36641C19.92 2.60774 20.4414 2.96152 20.8783 3.407C21.7785 4.32086 22.2831 5.55215 22.2831 6.83491C22.2831 8.11767 21.7785 9.34895 20.8783 10.2628L12 19.2525L3.12172 10.2628C2.22153 9.34895 1.71695 8.11767 1.71695 6.83491C1.71695 5.55215 2.22153 4.32086 3.12172 3.407C3.55885 2.96184 4.08031 2.60825 4.65563 2.36688C5.23095 2.1255 5.8486 2.00119 6.4725 2.00119C7.0964 2.00119 7.71405 2.1255 8.28936 2.36688C8.86468 2.60825 9.38614 2.96184 9.82328 3.407L12 5.63514L14.1682 3.42414C14.6037 2.97335 15.1257 2.61503 15.7029 2.3706C16.2801 2.12617 16.9007 2.00065 17.5275 2.00155ZM17.5275 0.2876C16.6753 0.286878 15.8316 0.4563 15.0458 0.785934C14.26 1.11557 13.5479 1.59878 12.9512 2.20723L12 3.16704L11.0488 2.20723C10.4514 1.59987 9.73912 1.1175 8.95344 0.788238C8.16775 0.458971 7.32439 0.289395 6.4725 0.289395C5.62061 0.289395 4.77724 0.458971 3.99156 0.788238C3.20587 1.1175 2.49359 1.59987 1.89624 2.20723C0.68094 3.44438 0 5.10926 0 6.84348C0 8.57769 0.68094 10.2426 1.89624 11.4797L11.2884 20.9914C11.68 21.3879 12.32 21.3879 12.7116 20.9914L22.1038 11.4797C23.3191 10.2426 24 8.57769 24 6.84348C24 5.10926 23.3191 3.44438 22.1038 2.20723C21.5066 1.59955 20.7943 1.11685 20.0087 0.78727C19.223 0.457692 18.3795 0.287834 17.5275 0.2876Z" fill="black"/>
</svg>
