<svg width="24" height="24" viewBox="0 0 24 24" fill="none" xmlns="http://www.w3.org/2000/svg">
<path d="M17.2401 12.0001C17.2408 12.1317 17.2156 12.2621 17.1658 12.384C17.1161 12.5058 17.0427 12.6166 16.9501 12.7101L10.9501 18.7101C10.8571 18.8038 10.7465 18.8782 10.6246 18.929C10.5028 18.9797 10.3721 19.0059 10.2401 19.0059C10.108 19.0059 9.97733 18.9797 9.85547 18.929C9.73361 18.8782 9.62301 18.8038 9.53005 18.7101C9.3438 18.5227 9.23926 18.2692 9.23926 18.0051C9.23926 17.7409 9.3438 17.4874 9.53005 17.3001L14.8301 12.0001L9.53005 6.71006C9.3438 6.5227 9.23926 6.26925 9.23926 6.00506C9.23926 5.74087 9.3438 5.48742 9.53005 5.30006C9.62301 5.20633 9.73361 5.13194 9.85547 5.08117C9.97733 5.0304 10.108 5.00426 10.2401 5.00426C10.3721 5.00426 10.5028 5.0304 10.6246 5.08117C10.7465 5.13194 10.8571 5.20633 10.9501 5.30006L16.9501 11.3001C17.1348 11.4863 17.2389 11.7377 17.2401 12.0001Z" fill="black"/>
</svg>
