<svg width="24" height="25" viewBox="0 0 24 25" fill="none" xmlns="http://www.w3.org/2000/svg">
<path fill-rule="evenodd" clip-rule="evenodd" d="M6.25 3.57829C3.5 3.57829 3.5 3.79095 3.5 6.3899V6.41546C3.5 7.54727 3.5 8.36519 3.771 8.71076C4.036 9.04611 4.823 9.20152 6.25 9.20152C7.677 9.20152 8.464 9.04509 8.729 8.70974C9 8.36519 9 7.54726 9 6.41444C9 3.79095 9 3.57829 6.25 3.57829ZM6.25 10.7351C4.564 10.7351 3.299 10.5542 2.604 9.67182C2 8.90604 2 7.86114 2 6.41546L2.75 6.3899H2C2 3.4556 2.181 2.04468 6.25 2.04468C10.319 2.04468 10.5 3.4556 10.5 6.3899C10.5 7.86012 10.5 8.90604 9.896 9.67182C9.201 10.5542 7.936 10.7351 6.25 10.7351Z" fill="#8C8C8C"/>
<path fill-rule="evenodd" clip-rule="evenodd" d="M17.25 3.57829C14.5 3.57829 14.5 3.79095 14.5 6.3899V6.41546C14.5 7.54727 14.5 8.36519 14.771 8.71076C15.036 9.04611 15.823 9.20152 17.25 9.20152C18.677 9.20152 19.464 9.04509 19.729 8.70974C20 8.36519 20 7.54726 20 6.41444C20 3.79095 20 3.57829 17.25 3.57829ZM17.25 10.7351C15.564 10.7351 14.299 10.5542 13.604 9.67182C13 8.90604 13 7.86114 13 6.41546L13.75 6.3899H13C13 3.4556 13.181 2.04468 17.25 2.04468C21.319 2.04468 21.5 3.4556 21.5 6.3899C21.5 7.86012 21.5 8.90604 20.896 9.67182C20.201 10.5542 18.936 10.7351 17.25 10.7351Z" fill="#8C8C8C"/>
<path fill-rule="evenodd" clip-rule="evenodd" d="M6.25 14.8249C3.5 14.8249 3.5 15.0375 3.5 17.6365V17.662C3.5 18.7938 3.5 19.6118 3.771 19.9573C4.036 20.2927 4.823 20.4481 6.25 20.4481C7.677 20.4481 8.464 20.2917 8.729 19.9563C9 19.6118 9 18.7938 9 17.661C9 15.0375 9 14.8249 6.25 14.8249ZM6.25 21.9817C4.564 21.9817 3.299 21.8007 2.604 20.9184C2 20.1526 2 19.1077 2 17.662L2.75 17.6365H2C2 14.7022 2.181 13.2913 6.25 13.2913C10.319 13.2913 10.5 14.7022 10.5 17.6365C10.5 19.1067 10.5 20.1526 9.896 20.9184C9.201 21.8007 7.936 21.9817 6.25 21.9817Z" fill="#8C8C8C"/>
<path fill-rule="evenodd" clip-rule="evenodd" d="M17.25 14.8249C14.5 14.8249 14.5 15.0375 14.5 17.6365V17.662C14.5 18.7938 14.5 19.6118 14.771 19.9573C15.036 20.2927 15.823 20.4481 17.25 20.4481C18.677 20.4481 19.464 20.2917 19.729 19.9563C20 19.6118 20 18.7938 20 17.661C20 15.0375 20 14.8249 17.25 14.8249ZM17.25 21.9817C15.564 21.9817 14.299 21.8007 13.604 20.9184C13 20.1526 13 19.1077 13 17.662L13.75 17.6365H13C13 14.7022 13.181 13.2913 17.25 13.2913C21.319 13.2913 21.5 14.7022 21.5 17.6365C21.5 19.1067 21.5 20.1526 20.896 20.9184C20.201 21.8007 18.936 21.9817 17.25 21.9817Z" fill="#8C8C8C"/>
</svg>
