<svg width="20" height="20" viewBox="0 0 20 20" fill="none" xmlns="http://www.w3.org/2000/svg">
<path d="M18.75 1.53361H0.75C0.34 1.53361 0 1.18599 0 0.766804C0 0.347618 0.34 0 0.75 0H18.75C19.16 0 19.5 0.347618 19.5 0.766804C19.5 1.18599 19.16 1.53361 18.75 1.53361Z" fill="#8C8C8C"/>
<path d="M18.75 10.7353H0.75C0.34 10.7353 0 10.3877 0 9.96846C0 9.54928 0.34 9.20166 0.75 9.20166H18.75C19.16 9.20166 19.5 9.54928 19.5 9.96846C19.5 10.3877 19.16 10.7353 18.75 10.7353Z" fill="#8C8C8C"/>
<path d="M18.75 19.9369H0.75C0.34 19.9369 0 19.5893 0 19.1701C0 18.7509 0.34 18.4033 0.75 18.4033H18.75C19.16 18.4033 19.5 18.7509 19.5 19.1701C19.5 19.5893 19.16 19.9369 18.75 19.9369Z" fill="#8C8C8C"/>
</svg>
