<svg width="78" height="79" viewBox="0 0 78 79" fill="none" xmlns="http://www.w3.org/2000/svg">
<circle cx="39" cy="39" r="39" fill="white"/>
<circle cx="39" cy="39.6646" r="38.5" fill="#003082" stroke="white"/>
<g clip-path="url(#clip0_749_6994)">
<path d="M31.0538 54.4566C30.7061 54.4566 30.3264 54.4338 29.9147 54.388C29.503 54.3514 29.1004 54.3057 28.707 54.2508C28.3228 54.1867 27.9934 54.1318 27.7189 54.0861L27.8424 52.5902C28.1261 52.6268 28.4554 52.668 28.8305 52.7137C29.2057 52.7503 29.5762 52.7823 29.9422 52.8098C30.3173 52.8372 30.6421 52.851 30.9165 52.851C31.2642 52.851 31.5478 52.8052 31.7674 52.7137C31.987 52.6222 32.1471 52.485 32.2477 52.302C32.3575 52.1099 32.4124 51.8674 32.4124 51.5746C32.4124 51.3368 32.3621 51.1492 32.2615 51.012C32.17 50.8656 32.0007 50.7512 31.7537 50.6689C31.5067 50.5774 31.1636 50.4905 30.7244 50.4081C30.1755 50.3075 29.7043 50.1886 29.3109 50.0513C28.9266 49.9141 28.611 49.7448 28.3639 49.5435C28.1169 49.3331 27.9339 49.0678 27.815 48.7476C27.7052 48.4273 27.6503 48.0385 27.6503 47.581C27.6503 46.8674 27.783 46.3093 28.0483 45.9068C28.3136 45.495 28.6933 45.2023 29.1874 45.0284C29.6814 44.8546 30.2624 44.7677 30.9303 44.7677C31.2322 44.7677 31.5753 44.786 31.9595 44.8226C32.353 44.85 32.7372 44.8866 33.1123 44.9324C33.4966 44.9781 33.8214 45.0284 34.0867 45.0833L34.0044 46.5929C33.7299 46.5563 33.4097 46.5243 33.0437 46.4969C32.6869 46.4603 32.3301 46.4283 31.9733 46.4008C31.6256 46.3734 31.3283 46.3596 31.0812 46.3596C30.7427 46.3596 30.4591 46.3962 30.2304 46.4694C30.0016 46.5426 29.8324 46.657 29.7226 46.8125C29.6128 46.9681 29.5579 47.1648 29.5579 47.4026C29.5579 47.6771 29.6128 47.8875 29.7226 48.0339C29.8324 48.1803 30.0154 48.2993 30.2715 48.3907C30.5369 48.4822 30.8982 48.5783 31.3557 48.6789C31.8955 48.7979 32.353 48.926 32.7281 49.0632C33.1123 49.2004 33.4188 49.3651 33.6476 49.5573C33.8854 49.7494 34.0593 49.9964 34.1691 50.2983C34.2789 50.6003 34.3337 50.98 34.3337 51.4374C34.3337 52.1693 34.2011 52.7595 33.9358 53.2078C33.6796 53.6469 33.3045 53.9671 32.8104 54.1684C32.3255 54.3606 31.74 54.4566 31.0538 54.4566ZM38.3227 54.4566C37.5634 54.4566 36.9595 54.3285 36.5112 54.0724C36.072 53.8162 35.7564 53.4273 35.5643 52.9058C35.3721 52.3843 35.2761 51.7302 35.2761 50.9434C35.2761 50.0925 35.395 49.3972 35.6329 48.8574C35.8799 48.3176 36.2367 47.9196 36.7033 47.6634C37.1699 47.3981 37.7463 47.2654 38.4325 47.2654C39.4481 47.2654 40.212 47.5216 40.7244 48.0339C41.2459 48.5463 41.5066 49.356 41.5066 50.463L41.4243 51.4786H37.115C37.1242 51.9909 37.2294 52.3752 37.4307 52.6314C37.632 52.8875 37.9796 53.0156 38.4737 53.0156C38.7573 53.0156 39.0684 53.0111 39.4069 53.0019C39.7454 52.9836 40.0794 52.9653 40.4087 52.947C40.7473 52.9287 41.0355 52.9104 41.2733 52.8921L41.3145 54.1684C41.0858 54.205 40.7976 54.2462 40.4499 54.2919C40.1022 54.3377 39.7409 54.3743 39.3657 54.4017C38.9998 54.4383 38.6521 54.4566 38.3227 54.4566ZM37.115 50.3121H39.6814C39.6814 49.6899 39.5807 49.2553 39.3795 49.0083C39.1873 48.7613 38.8717 48.6378 38.4325 48.6378C38.1398 48.6378 37.8973 48.6927 37.7052 48.8025C37.513 48.9122 37.3667 49.0907 37.266 49.3377C37.1654 49.5847 37.115 49.9095 37.115 50.3121ZM42.7752 54.3057V44.603H44.6005V54.3057H42.7752ZM46.2195 54.3057V44.603H48.0448V54.3057H46.2195Z" fill="white"/>
<path d="M44.6461 33.0822H42.3302M43.4882 31.9134V34.307M46.5967 33.0982C46.5967 33.6986 46.4335 34.267 46.1459 34.7473C45.9827 35.0355 45.7729 35.2917 45.532 35.4998C44.988 36.0042 44.2731 36.3004 43.4882 36.3004C42.5401 36.3004 41.693 35.8601 41.1335 35.1716C41.1179 35.1476 41.0946 35.1316 41.0791 35.1076C40.9858 34.9955 40.9003 34.8754 40.8304 34.7473C40.5345 34.2513 40.3785 33.6803 40.3796 33.0982C40.3796 32.0895 40.8304 31.1849 41.5453 30.6005C42.0816 30.1602 42.7577 29.896 43.4882 29.896C44.2653 29.896 44.9647 30.1842 45.5087 30.6725C45.602 30.7446 45.6874 30.8326 45.7652 30.9207C46.2781 31.4971 46.5967 32.2576 46.5967 33.0982Z" stroke="white" stroke-width="1.14364" stroke-miterlimit="10" stroke-linecap="round" stroke-linejoin="round"/>
<path d="M31.1947 24.6448L38.0568 28.7356L44.8723 24.6688M38.0568 35.9886V28.7276" stroke="white" stroke-width="1.14364" stroke-linecap="round" stroke-linejoin="round"/>
<path d="M45.5236 26.029V30.5601C45.5236 30.6001 45.5236 30.6322 45.5159 30.6722C44.9719 30.1839 44.2725 29.8957 43.4953 29.8957C42.7648 29.8957 42.0887 30.1598 41.5525 30.6001C41.1877 30.8988 40.8933 31.2786 40.6914 31.7112C40.4895 32.1438 40.3854 32.6179 40.3868 33.0979C40.3868 33.6983 40.55 34.2667 40.8375 34.747C40.9075 34.8751 40.993 34.9952 41.0862 35.1072L39.6641 35.9158C38.7781 36.4281 37.3327 36.4281 36.4467 35.9158L32.2969 33.5462C31.3565 33.0098 30.5872 31.6649 30.5872 30.5601V26.029C30.5872 24.9242 31.3565 23.5793 32.2969 23.043L36.4467 20.6733C37.3327 20.161 38.7781 20.161 39.6641 20.6733L43.8139 23.043C44.7543 23.5793 45.5236 24.9242 45.5236 26.029Z" stroke="white" stroke-width="1.14364" stroke-linecap="round" stroke-linejoin="round"/>
</g>
<defs>
<clipPath id="clip0_749_6994">
<rect width="55" height="54" fill="white" transform="translate(10 13)"/>
</clipPath>
</defs>
</svg>
