<svg width="13" height="13" viewBox="0 0 13 13" fill="none" xmlns="http://www.w3.org/2000/svg">
<path fill-rule="evenodd" clip-rule="evenodd" d="M10.5307 5.45215H1.61865C1.41165 5.45215 1.24365 5.28415 1.24365 5.07715C1.24365 4.87015 1.41165 4.70215 1.61865 4.70215H10.5307C10.7377 4.70215 10.9057 4.87015 10.9057 5.07715C10.9057 5.28415 10.7377 5.45215 10.5307 5.45215Z" fill="#9E9E9E"/>
<path fill-rule="evenodd" clip-rule="evenodd" d="M8.29814 7.40479C8.09114 7.40479 7.92114 7.23679 7.92114 7.02979C7.92114 6.82279 8.08664 6.65479 8.29364 6.65479H8.29814C8.50514 6.65479 8.67314 6.82279 8.67314 7.02979C8.67314 7.23679 8.50514 7.40479 8.29814 7.40479Z" fill="#9E9E9E"/>
<path fill-rule="evenodd" clip-rule="evenodd" d="M6.07939 7.40479C5.87239 7.40479 5.70239 7.23679 5.70239 7.02979C5.70239 6.82279 5.86789 6.65479 6.07489 6.65479H6.07939C6.28639 6.65479 6.45439 6.82279 6.45439 7.02979C6.45439 7.23679 6.28639 7.40479 6.07939 7.40479Z" fill="#9E9E9E"/>
<path fill-rule="evenodd" clip-rule="evenodd" d="M3.85602 7.40479C3.64902 7.40479 3.47852 7.23679 3.47852 7.02979C3.47852 6.82279 3.64452 6.65479 3.85152 6.65479H3.85602C4.06302 6.65479 4.23102 6.82279 4.23102 7.02979C4.23102 7.23679 4.06302 7.40479 3.85602 7.40479Z" fill="#9E9E9E"/>
<path fill-rule="evenodd" clip-rule="evenodd" d="M8.29814 9.34814C8.09114 9.34814 7.92114 9.18014 7.92114 8.97314C7.92114 8.76614 8.08664 8.59814 8.29364 8.59814H8.29814C8.50514 8.59814 8.67314 8.76614 8.67314 8.97314C8.67314 9.18014 8.50514 9.34814 8.29814 9.34814Z" fill="#9E9E9E"/>
<path fill-rule="evenodd" clip-rule="evenodd" d="M6.07939 9.34814C5.87239 9.34814 5.70239 9.18014 5.70239 8.97314C5.70239 8.76614 5.86789 8.59814 6.07489 8.59814H6.07939C6.28639 8.59814 6.45439 8.76614 6.45439 8.97314C6.45439 9.18014 6.28639 9.34814 6.07939 9.34814Z" fill="#9E9E9E"/>
<path fill-rule="evenodd" clip-rule="evenodd" d="M3.85602 9.34814C3.64902 9.34814 3.47852 9.18014 3.47852 8.97314C3.47852 8.76614 3.64452 8.59814 3.85152 8.59814H3.85602C4.06302 8.59814 4.23102 8.76614 4.23102 8.97314C4.23102 9.18014 4.06302 9.34814 3.85602 9.34814Z" fill="#9E9E9E"/>
<path fill-rule="evenodd" clip-rule="evenodd" d="M8.09424 3.3955C7.88724 3.3955 7.71924 3.2275 7.71924 3.0205V1.375C7.71924 1.168 7.88724 1 8.09424 1C8.30124 1 8.46924 1.168 8.46924 1.375V3.0205C8.46924 3.2275 8.30124 3.3955 8.09424 3.3955Z" fill="#9E9E9E"/>
<path fill-rule="evenodd" clip-rule="evenodd" d="M4.05518 3.3955C3.84818 3.3955 3.68018 3.2275 3.68018 3.0205V1.375C3.68018 1.168 3.84818 1 4.05518 1C4.26218 1 4.43018 1.168 4.43018 1.375V3.0205C4.43018 3.2275 4.26218 3.3955 4.05518 3.3955Z" fill="#9E9E9E"/>
<mask id="mask0_749_3281" style="mask-type:luminance" maskUnits="userSpaceOnUse" x="1" y="1" width="10" height="11">
<path fill-rule="evenodd" clip-rule="evenodd" d="M1.19751 1.78955H10.9475V11.75H1.19751V1.78955Z" fill="white"/>
</mask>
<g mask="url(#mask0_749_3281)">
<path fill-rule="evenodd" clip-rule="evenodd" d="M3.95801 2.53955C2.66151 2.53955 1.94751 3.23105 1.94751 4.48655V9.01105C1.94751 10.2941 2.66151 11.0001 3.95801 11.0001H8.18701C9.48351 11.0001 10.1975 10.3071 10.1975 9.04905V4.48655C10.1995 3.86905 10.0335 3.38905 9.70401 3.05905C9.36501 2.71905 8.84251 2.53955 8.19151 2.53955H3.95801ZM8.18701 11.7501H3.95801C2.25551 11.7501 1.19751 10.7006 1.19751 9.01105V4.48655C1.19751 2.82255 2.25551 1.78955 3.95801 1.78955H8.19151C9.04601 1.78955 9.75251 2.04555 10.235 2.52905C10.7035 2.99955 10.95 3.67605 10.9475 4.48755V9.04905C10.9475 10.7151 9.88951 11.7501 8.18701 11.7501Z" fill="#9E9E9E"/>
</g>
</svg>
