<svg width="19" height="19" viewBox="0 0 19 19" fill="none" xmlns="http://www.w3.org/2000/svg">
<mask id="mask0_749_3277" style="mask-type:luminance" maskUnits="userSpaceOnUse" x="1" y="2" width="17" height="16">
<path fill-rule="evenodd" clip-rule="evenodd" d="M1.69751 2.75H17.0519V17.3758H1.69751V2.75Z" fill="white"/>
</mask>
<g mask="url(#mask0_749_3277)">
<path fill-rule="evenodd" clip-rule="evenodd" d="M3.06523 9.59234C4.11673 12.8638 8.27098 15.5091 9.37498 16.1638C10.4827 15.5023 14.667 12.8278 15.6847 9.59534C16.353 7.50584 15.7327 4.85909 13.2682 4.06484C12.0742 3.68159 10.6815 3.91484 9.71998 4.65884C9.51898 4.81334 9.23998 4.81634 9.03748 4.66334C8.01898 3.89759 6.68848 3.67334 5.47573 4.06484C3.01498 4.85834 2.39698 7.50509 3.06523 9.59234ZM9.37573 17.3758C9.28273 17.3758 9.19048 17.3533 9.10648 17.3076C8.87173 17.1793 3.34198 14.1313 1.99423 9.93584C1.99348 9.93584 1.99348 9.93509 1.99348 9.93509C1.14748 7.29359 2.08948 3.97409 5.13073 2.99384C6.55873 2.53184 8.11498 2.73509 9.37348 3.52934C10.593 2.75834 12.213 2.54534 13.6125 2.99384C16.6567 3.97559 17.6017 7.29434 16.7565 9.93509C15.4522 14.0826 9.88198 17.1763 9.64573 17.3061C9.56173 17.3526 9.46873 17.3758 9.37573 17.3758Z" fill="#3E6FCF"/>
</g>
<path fill-rule="evenodd" clip-rule="evenodd" d="M13.8128 8.4687C13.5225 8.4687 13.2765 8.24595 13.2525 7.95195C13.203 7.33545 12.7905 6.81495 12.2033 6.6252C11.907 6.5292 11.745 6.21195 11.8403 5.9172C11.937 5.6217 12.2513 5.4612 12.5483 5.5542C13.5705 5.88495 14.2868 6.7902 14.3745 7.86045C14.3993 8.1702 14.169 8.4417 13.8593 8.46645C13.8435 8.46795 13.8285 8.4687 13.8128 8.4687Z" fill="#3E6FCF"/>
</svg>
