<svg width="19" height="19" viewBox="0 0 19 19" fill="none" xmlns="http://www.w3.org/2000/svg">
<path d="M16.8772 9.53125C17.192 9.53148 17.4475 9.78232 17.4475 10.0918C17.4473 10.4003 17.1918 10.6502 16.8772 10.6504H16.0803V13.3203C16.0801 14.9367 14.7399 16.25 13.093 16.25H11.8987C11.5829 16.25 11.3264 15.9991 11.3264 15.6895C11.3265 15.3806 11.583 15.1299 11.8987 15.1299H13.093C14.1106 15.1299 14.9385 14.3189 14.9387 13.3203V10.6504H12.9719V11.3936C12.9794 12.3239 12.2175 13.0849 11.2688 13.0938H7.12622C6.17822 13.0849 5.41657 12.3239 5.42407 11.3936V10.6504H3.45728V13.3232C3.45746 14.318 4.28266 15.1272 5.29712 15.1289L6.5188 15.1299C6.83362 15.13 7.08904 15.3807 7.08911 15.6895C7.08836 15.9991 6.83354 16.25 6.51782 16.25L5.29614 16.249C3.65301 16.2476 2.31488 14.9352 2.3147 13.3232V10.6504H1.5188C1.20405 10.6503 0.947763 10.4004 0.94751 10.0918C0.94751 9.78224 1.2039 9.53136 1.5188 9.53125H16.8772ZM11.2698 5.55664C11.7232 5.55674 12.1587 5.73559 12.4758 6.05371C12.7953 6.3751 12.9727 6.80748 12.9719 7.25684V8.19043C12.9682 8.30001 12.8786 8.38964 12.7668 8.39258H5.6272C5.5162 8.3889 5.4273 8.29928 5.42505 8.19043V7.25684C5.4168 6.32654 6.1783 5.56629 7.12622 5.55664H11.2698ZM6.51782 2.75C6.83282 2.75 7.08911 3.00092 7.08911 3.31055C7.08904 3.61937 6.83353 3.87012 6.51782 3.87012L5.29614 3.87109C4.28244 3.87277 3.45746 4.68197 3.45728 5.67676V7.07129C3.45728 7.38018 3.20099 7.63184 2.88599 7.63184C2.57101 7.63181 2.31567 7.38016 2.31567 7.07129V5.67676C2.31586 4.0648 3.65301 2.75245 5.29614 2.75098L6.51782 2.75ZM13.093 2.75C14.7406 2.75016 16.0803 4.064 16.0803 5.67969V7.07129C16.0803 7.38018 15.8248 7.63184 15.509 7.63184C15.1941 7.63174 14.9387 7.38012 14.9387 7.07129V5.67969C14.9387 4.68178 14.1106 3.8693 13.093 3.86914H11.8977C11.5828 3.86901 11.3274 3.61935 11.3274 3.31055C11.3274 3.00105 11.5829 2.75013 11.8977 2.75H13.093Z" fill="#EE7D19"/>
</svg>
