<svg width="13" height="13" viewBox="0 0 13 13" fill="none" xmlns="http://www.w3.org/2000/svg">
<g clip-path="url(#clip0_749_3285)">
<path d="M11.26 6.5L9.28188 8.00469C9.25376 8.00234 9.22563 8 9.19751 8C8.78267 8 8.44751 8.33516 8.44751 8.75C8.44751 9.16484 8.78267 9.5 9.19751 9.5C9.61235 9.5 9.94751 9.16484 9.94751 8.75C9.94751 8.72187 9.94517 8.69375 9.94282 8.66562L11.4475 6.6875L11.26 6.5Z" fill="#9E9E9E"/>
<path d="M9.19751 2.75C6.29829 2.75 3.94751 5.10078 3.94751 8C3.94751 8.80625 4.13032 9.56797 4.45376 10.25H5.29985C4.93892 9.62656 4.73267 8.92344 4.7022 8.1875H5.44751V7.8125H4.7022C4.73032 7.1375 4.9061 6.48828 5.21313 5.90469L5.85767 6.27734L6.04517 5.95156L5.40063 5.58125C5.57407 5.30938 5.78032 5.05156 6.0147 4.81719C6.25376 4.58047 6.51392 4.37188 6.79048 4.19609L7.16079 4.83594L7.48657 4.64844L7.11626 4.00859C7.69751 3.70391 8.3397 3.53281 9.01001 3.50469V4.25H9.38501V3.50469C10.0553 3.53281 10.6975 3.70625 11.2788 4.00859L10.9108 4.64844L11.2366 4.83594L11.6069 4.19609C11.8834 4.37188 12.1436 4.58047 12.3827 4.81719C12.617 5.05156 12.8209 5.30703 12.9967 5.58125L12.3545 5.95156L12.542 6.27734L13.1866 5.90469C13.4936 6.48828 13.6694 7.1375 13.6975 7.8125H12.9475V8.1875H13.6928C13.6624 8.92344 13.4561 9.62656 13.0952 10.25H13.9413C14.2647 9.56797 14.4475 8.80625 14.4475 8C14.4475 5.10078 12.0967 2.75 9.19751 2.75Z" fill="#9E9E9E"/>
</g>
<defs>
<clipPath id="clip0_749_3285">
<rect width="12" height="12" fill="white" transform="translate(0.19751 0.5)"/>
</clipPath>
</defs>
</svg>
