<svg width="13" height="13" viewBox="0 0 13 13" fill="none" xmlns="http://www.w3.org/2000/svg">
<path fill-rule="evenodd" clip-rule="evenodd" d="M4.09888 5.59924C3.89188 5.59924 3.72388 5.43124 3.72388 5.22424V4.15074C3.73038 2.68174 4.91838 1.50024 6.37488 1.50024H6.38488C7.51288 1.50024 8.51988 2.21674 8.88938 3.28374C8.95738 3.47924 8.85338 3.69274 8.65738 3.76074C8.46188 3.82924 8.24838 3.72474 8.18038 3.52874C7.91588 2.76424 7.19338 2.25024 6.38338 2.25024H6.37638C5.33038 2.25024 4.47838 3.09724 4.47388 4.14224V5.22424C4.47388 5.43124 4.30588 5.59924 4.09888 5.59924Z" fill="#9E9E9E"/>
<path fill-rule="evenodd" clip-rule="evenodd" d="M4.46851 5.56348C3.62951 5.56348 2.94751 6.24598 2.94751 7.08498V9.22898C2.94751 10.068 3.62951 10.7505 4.46851 10.7505H8.28951C9.12801 10.7505 9.81051 10.068 9.81051 9.22898V7.08498C9.81051 6.24598 9.12801 5.56348 8.28951 5.56348H4.46851ZM8.28951 11.5005H4.46851C3.21601 11.5005 2.19751 10.4815 2.19751 9.22898V7.08498C2.19751 5.83248 3.21601 4.81348 4.46851 4.81348H8.28951C9.54151 4.81348 10.5605 5.83248 10.5605 7.08498V9.22898C10.5605 10.4815 9.54151 11.5005 8.28951 11.5005Z" fill="#9E9E9E"/>
<path fill-rule="evenodd" clip-rule="evenodd" d="M6.37915 9.08756C6.17215 9.08756 6.00415 8.91956 6.00415 8.71256V7.60156C6.00415 7.39456 6.17215 7.22656 6.37915 7.22656C6.58615 7.22656 6.75415 7.39456 6.75415 7.60156V8.71256C6.75415 8.91956 6.58615 9.08756 6.37915 9.08756Z" fill="#9E9E9E"/>
</svg>
