<svg width="24" height="24" viewBox="0 0 24 24" fill="none" xmlns="http://www.w3.org/2000/svg">
<path d="M20.1912 14.0598L19.0612 12.1798C18.8112 11.7698 18.5912 10.9798 18.5912 10.4998V8.6298C18.5912 4.9998 15.6412 2.0498 12.0212 2.0498C8.39118 2.0598 5.44118 4.9998 5.44118 8.6298V10.4898C5.44118 10.9698 5.22118 11.7598 4.98118 12.1698L3.85118 14.0498C3.42118 14.7798 3.32118 15.6098 3.59118 16.3298C3.86118 17.0598 4.47118 17.6398 5.27118 17.8998C6.35118 18.2598 7.44118 18.5198 8.55118 18.7098C8.66118 18.7298 8.77118 18.7398 8.88118 18.7598L9.32118 18.8198C9.58118 18.8598 9.84118 18.8898 10.1112 18.9098C11.3717 19.0287 12.6406 19.0287 13.9012 18.9098C14.1312 18.8898 14.3612 18.8698 14.5812 18.8398C14.7612 18.8198 14.9412 18.7998 15.1212 18.7698C15.2312 18.7598 15.3412 18.7398 15.4512 18.7198C16.5712 18.5398 17.6812 18.2598 18.7612 17.8998C19.1348 17.7749 19.4759 17.5683 19.7596 17.295C20.0433 17.0216 20.2624 16.6885 20.4012 16.3198C20.6812 15.5698 20.6012 14.7498 20.1912 14.0598ZM12.7512 9.9998C12.7512 10.2014 12.6711 10.3947 12.5286 10.5372C12.3861 10.6797 12.1927 10.7598 11.9912 10.7598C11.7896 10.7598 11.5963 10.6797 11.4538 10.5372C11.3113 10.3947 11.2312 10.2014 11.2312 9.9998V6.89981C11.2312 6.69824 11.3113 6.50493 11.4538 6.3624C11.5963 6.21988 11.7896 6.1398 11.9912 6.1398C12.1927 6.1398 12.3861 6.21988 12.5286 6.3624C12.6711 6.50493 12.7512 6.69824 12.7512 6.89981V9.9998ZM14.8312 20.0098C14.6209 20.592 14.2365 21.0952 13.7301 21.4513C13.2238 21.8073 12.6201 21.9988 12.0012 21.9998C11.2112 21.9998 10.4312 21.6798 9.88118 21.1098C9.56118 20.8098 9.32118 20.4098 9.18118 19.9998C9.31118 20.0198 9.44118 20.0298 9.58118 20.0498C9.81118 20.0798 10.0512 20.1098 10.2912 20.1298C10.8612 20.1798 11.4412 20.2098 12.0212 20.2098C12.5912 20.2098 13.1612 20.1798 13.7212 20.1298C13.9312 20.1098 14.1412 20.0998 14.3412 20.0698L14.8312 20.0098Z" fill="black"/>
</svg>
