<svg width="22" height="22" viewBox="0 0 22 22" fill="none" xmlns="http://www.w3.org/2000/svg">
<path d="M17.2777 14.4201C17.1501 14.463 17.0067 14.4588 16.8722 14.392C16.612 14.2627 16.5036 13.9405 16.6329 13.6803C18.2417 10.4416 16.9166 6.50054 13.6801 4.89845C13.42 4.76921 13.3116 4.44694 13.4408 4.18677C13.5701 3.9266 13.8923 3.81824 14.1525 3.94748C17.9115 5.81476 19.4511 10.3937 17.5838 14.1527C17.517 14.2873 17.4052 14.3772 17.2777 14.4201Z" fill="#A1A1A1"/>
<path d="M7.78416 17.6121C7.65659 17.6549 7.51322 17.6508 7.37864 17.584C3.61961 15.7167 2.08003 11.1378 3.94731 7.37876C4.07655 7.11859 4.39882 7.01023 4.65899 7.13947C4.91917 7.26871 5.02752 7.59098 4.89828 7.85115C3.28948 11.0898 4.6146 15.0309 7.85103 16.633C8.11121 16.7622 8.21956 17.0845 8.09032 17.3447C8.02348 17.4793 7.91172 17.5692 7.78416 17.6121Z" fill="#A1A1A1"/>
<path d="M13.1833 17.9564C12.3418 18.2319 11.4977 18.3662 10.6644 18.355C10.3709 18.349 10.1329 18.1078 10.1388 17.8143C10.1448 17.5209 10.3794 17.285 10.6795 17.2887C11.3986 17.2936 12.124 17.1842 12.8491 16.9404C13.5675 16.6988 14.2184 16.3454 14.7818 15.9094C15.0143 15.7341 15.3481 15.7713 15.5302 16.0016C15.7122 16.2318 15.6683 16.5679 15.438 16.7499C14.7741 17.2646 14.0225 17.6743 13.1833 17.9564Z" fill="#A1A1A1"/>
<path d="M11.0264 4.20656C10.9727 4.22462 10.91 4.2382 10.8495 4.23611C10.1304 4.23127 9.39828 4.34293 8.67988 4.58448C7.96148 4.82603 7.3173 5.17714 6.74726 5.61542C6.51476 5.79074 6.18092 5.75356 5.99889 5.52332C5.81685 5.29308 5.86076 4.95696 6.091 4.77492C6.74821 4.2625 7.50873 3.85731 8.34126 3.57738C9.17379 3.29746 10.0246 3.16085 10.8579 3.17212C11.1514 3.17808 11.3894 3.41939 11.3835 3.71284C11.3863 3.94354 11.2345 4.13658 11.0264 4.20656Z" fill="#A1A1A1"/>
<path d="M10.8736 14.2866C10.5782 14.386 10.2714 14.4069 9.97557 14.3495C9.28529 14.2079 8.74179 13.6583 8.45284 12.7989L7.69659 10.5497C7.40764 9.69033 7.50196 8.92626 7.9732 8.39416C8.43773 7.86432 9.18762 7.67194 10.0774 7.85106L12.4014 8.31766C13.2911 8.49677 13.9039 8.96331 14.1296 9.63471C14.3553 10.3061 14.149 11.0481 13.5482 11.7283L11.9781 13.5043C11.6387 13.8949 11.2563 14.158 10.8736 14.2866ZM9.06315 8.90201C8.94229 8.94265 8.83718 9.00788 8.76796 9.09094C8.5692 9.32217 8.54115 9.72769 8.70143 10.2044L9.45767 12.4535C9.61795 12.9302 9.88085 13.2454 10.1834 13.3006C10.4792 13.3581 10.8439 13.1757 11.1811 12.8007L12.7512 11.0248C13.0862 10.6432 13.2196 10.262 13.1225 9.97333C13.0254 9.68463 12.6889 9.46152 12.1913 9.35978L9.86729 8.89322C9.54681 8.82909 9.27128 8.83203 9.06315 8.90201Z" fill="#A1A1A1"/>
</svg>
