<svg width="16" height="16" viewBox="0 0 16 16" fill="none" xmlns="http://www.w3.org/2000/svg">
<path d="M13.2931 11.937H11.2681M12.2806 10.8921V13.032M14.9987 11.9514C14.9987 12.4881 14.856 12.9963 14.6046 13.4257C14.4619 13.6833 14.2784 13.9123 14.0677 14.0984C13.5921 14.5493 12.9669 14.8141 12.2806 14.8141C11.4516 14.8141 10.7109 14.4205 10.2216 13.805C10.2081 13.7835 10.1877 13.7692 10.1741 13.7477C10.0925 13.6475 10.0178 13.5402 9.95663 13.4257C9.69796 12.9822 9.5615 12.4718 9.56251 11.9514C9.56251 11.0496 9.95663 10.2409 10.5818 9.71843C11.0507 9.3248 11.6418 9.08862 12.2806 9.08862C12.9601 9.08862 13.5717 9.34627 14.0474 9.78284C14.1289 9.84725 14.2036 9.92597 14.2716 10.0047C14.7201 10.52 14.9987 11.1999 14.9987 11.9514Z" stroke="#8C8C8C" stroke-miterlimit="10" stroke-linecap="round" stroke-linejoin="round"/>
<path d="M1.53125 4.39404L7.53144 8.05119L13.4909 4.41551M7.53144 14.5353V8.04403" stroke="#8C8C8C" stroke-linecap="round" stroke-linejoin="round"/>
<path d="M14.0604 5.63145V9.68223C14.0604 9.71801 14.0604 9.74664 14.0536 9.78242C13.578 9.34585 12.9664 9.08821 12.2869 9.08821C11.6481 9.08821 11.0569 9.32438 10.5881 9.71801C10.2691 9.98498 10.0117 10.3246 9.83517 10.7113C9.65863 11.098 9.56756 11.5218 9.56879 11.9509C9.56879 12.4877 9.71149 12.9958 9.96291 13.4253C10.0241 13.5398 10.0988 13.6471 10.1804 13.7473L8.93683 14.4702C8.16217 14.9282 6.89826 14.9282 6.1236 14.4702L2.49495 12.3517C1.67273 11.8722 1 10.6699 1 9.68223V5.63145C1 4.64381 1.67273 3.44146 2.49495 2.96195L6.1236 0.843528C6.89826 0.385491 8.16217 0.385491 8.93683 0.843528L12.5655 2.96195C13.3877 3.44146 14.0604 4.64381 14.0604 5.63145Z" stroke="#8C8C8C" stroke-linecap="round" stroke-linejoin="round"/>
</svg>
