<svg width="41" height="39" viewBox="0 0 41 39" fill="none" xmlns="http://www.w3.org/2000/svg">
<rect x="0.0263176" y="-0.000244141" width="40.0263" height="39" rx="19.5" fill="#F8F8F8"/>
<rect x="0.526318" y="0.499756" width="39.0263" height="38" rx="19" stroke="#EEEEEE" stroke-opacity="0.933333"/>
<path d="M18.0163 29.7798C17.4163 29.7798 16.8463 29.4798 16.4563 28.9498L15.2563 27.3498C15.2563 27.3598 15.2063 27.3297 15.1863 27.3297H14.8163C11.3963 27.3297 9.27632 26.3998 9.27632 21.7898V17.7898C9.27632 13.5798 11.8463 12.4798 14.0063 12.2898C14.2463 12.2598 14.5263 12.2498 14.8163 12.2498H21.2163C24.8363 12.2498 26.7563 14.1698 26.7563 17.7898V21.7898C26.7563 22.0798 26.7463 22.3598 26.7063 22.6298C26.5263 24.7598 25.4263 27.3297 21.2163 27.3297H20.8163L19.5763 28.9498C19.1863 29.4798 18.6163 29.7798 18.0163 29.7798ZM14.8163 13.7498C14.5863 13.7498 14.3663 13.7598 14.1563 13.7798C11.8363 13.9798 10.7763 15.2498 10.7763 17.7898V21.7898C10.7763 25.2198 11.8363 25.8297 14.8163 25.8297H15.2163C15.6663 25.8297 16.1763 26.0798 16.4563 26.4398L17.6563 28.0497C17.8763 28.3497 18.1563 28.3497 18.3763 28.0497L19.5763 26.4498C19.8663 26.0598 20.3263 25.8297 20.8163 25.8297H21.2163C23.7563 25.8297 25.0263 24.7598 25.2163 22.4798C25.2463 22.2398 25.2563 22.0198 25.2563 21.7898V17.7898C25.2563 14.9998 24.0063 13.7498 21.2163 13.7498H14.8163Z" fill="#8C8C8C"/>
<path d="M18.0166 21.1897C17.4566 21.1897 17.0166 20.7397 17.0166 20.1897C17.0166 19.6397 17.4666 19.1897 18.0166 19.1897C18.5666 19.1897 19.0166 19.6397 19.0166 20.1897C19.0166 20.7397 18.5766 21.1897 18.0166 21.1897Z" fill="#8C8C8C"/>
<path d="M21.2163 21.1897C20.6563 21.1897 20.2163 20.7397 20.2163 20.1897C20.2163 19.6397 20.6663 19.1897 21.2163 19.1897C21.7663 19.1897 22.2163 19.6397 22.2163 20.1897C22.2163 20.7397 21.7663 21.1897 21.2163 21.1897Z" fill="#8C8C8C"/>
<path d="M14.8261 21.1897C14.2661 21.1897 13.8261 20.7397 13.8261 20.1897C13.8261 19.6397 14.2761 19.1897 14.8261 19.1897C15.3761 19.1897 15.8261 19.6397 15.8261 20.1897C15.8261 20.7397 15.3761 21.1897 14.8261 21.1897Z" fill="#8C8C8C"/>
<path d="M25.9665 23.2898C25.7665 23.2898 25.5664 23.2098 25.4264 23.0598C25.2664 22.8998 25.1965 22.6698 25.2265 22.4498C25.2565 22.2398 25.2664 22.0198 25.2664 21.7898V17.7898C25.2664 14.9998 24.0165 13.7498 21.2265 13.7498H14.8264C14.5964 13.7498 14.3765 13.7598 14.1665 13.7798C13.9465 13.8098 13.7164 13.7297 13.5564 13.5797C13.3964 13.4197 13.3064 13.1998 13.3264 12.9798C13.5064 10.8198 14.6164 8.24976 18.8264 8.24976H25.2265C28.8465 8.24976 30.7664 10.1698 30.7664 13.7898V17.7898C30.7664 21.9998 28.1965 23.0998 26.0365 23.2898C26.0065 23.2898 25.9865 23.2898 25.9665 23.2898ZM14.9465 12.2498H21.2165C24.8365 12.2498 26.7565 14.1698 26.7565 17.7898V21.6598C28.4565 21.2398 29.2565 19.9898 29.2565 17.7898V13.7898C29.2565 10.9998 28.0065 9.74976 25.2165 9.74976H18.8165C16.6165 9.74976 15.3765 10.5498 14.9465 12.2498Z" fill="#8C8C8C"/>
</svg>
