<svg width="22" height="22" viewBox="0 0 22 22" fill="none" xmlns="http://www.w3.org/2000/svg">
<path d="M8.98949 10.5261C7.94304 10.785 6.89127 10.1288 6.63797 9.05895C6.38466 7.98906 7.02648 6.91372 8.07293 6.65474C9.11937 6.39576 10.1711 7.05196 10.4244 8.12186C10.6778 9.19175 10.0359 10.2671 8.98949 10.5261ZM8.3229 7.71056C7.84787 7.82812 7.55566 8.3177 7.67064 8.80338C7.78563 9.28905 8.26448 9.58781 8.73952 9.47025C9.21455 9.35269 9.50676 8.8631 9.39177 8.37743C9.27678 7.89175 8.79793 7.593 8.3229 7.71056Z" fill="#A1A1A1"/>
<path d="M15.1194 17.951L10.9887 18.9733C7.25043 19.8985 5.2666 18.6607 4.36171 14.8387L3.36183 10.6154C2.45693 6.79339 3.66752 4.76512 7.40581 3.83995L10.1596 3.15843C10.4419 3.08857 10.7326 3.26996 10.8009 3.55855C10.8693 3.84714 10.6918 4.14438 10.4096 4.21424L7.65578 4.89576C4.48202 5.68122 3.62626 7.115 4.3945 10.3599L5.39438 14.5831C6.16263 17.828 7.56499 18.7029 10.7387 17.9175L14.8695 16.8952C18.0432 16.1097 18.899 14.676 18.1307 11.4311L17.2975 7.9117C17.2292 7.62311 17.4066 7.32587 17.6888 7.25601C17.9711 7.18615 18.2618 7.36754 18.3302 7.65613L19.1634 11.1755C20.0683 14.9976 18.8577 17.0258 15.1194 17.951Z" fill="#A1A1A1"/>
<path d="M13.4163 8.68716C13.1478 8.75361 12.8767 8.7164 12.6527 8.57065C12.3876 8.40527 12.2077 8.10704 12.1775 7.7643L12.0836 6.75183C12.0597 6.49696 12.1326 6.15851 12.2699 5.93824L14.1641 2.76469C14.9207 1.49701 15.9265 1.86655 16.4566 2.19732C16.9611 2.51208 17.2503 2.90248 17.3157 3.36319C17.3662 3.73068 17.2689 4.11988 17.0116 4.54123L15.1174 7.71478C14.987 7.93335 14.7259 8.15442 14.495 8.25629L13.5713 8.63389C13.5196 8.6616 13.4645 8.67523 13.4163 8.68716ZM15.0653 3.33894L13.1711 6.51249C13.1555 6.53872 13.1394 6.62466 13.1408 6.66156L13.2266 7.60897L14.0985 7.25908C14.1244 7.24522 14.1918 7.19129 14.2127 7.15632L16.1068 3.98276C16.2216 3.79043 16.2778 3.6275 16.2597 3.52022C16.2384 3.36899 16.0505 3.22177 15.9052 3.13107C15.4605 2.85365 15.3053 2.93678 15.0653 3.33894Z" fill="#A1A1A1"/>
<path d="M16.4083 5.24733C16.3601 5.25925 16.3103 5.26414 16.2656 5.26029C15.2798 5.22112 14.3648 4.65028 13.8799 3.77183C13.7375 3.50903 13.8276 3.18125 14.0846 3.03567C14.3416 2.89009 14.6622 2.98213 14.8046 3.24494C15.1098 3.7953 15.6844 4.15978 16.3096 4.18389C16.6033 4.19316 16.8316 4.4496 16.8209 4.74286C16.7985 4.98684 16.6286 5.19281 16.4083 5.24733Z" fill="#A1A1A1"/>
<path d="M6.11847 17.9057C5.95324 17.9466 5.76802 17.903 5.63664 17.779C5.42164 17.5789 5.40527 17.2327 5.60102 17.0129L8.44348 13.8431C9.06702 13.1523 10.1061 12.9547 10.9191 13.372L11.1947 13.5199C11.6105 13.7374 12.1957 13.5925 12.4614 13.2064L14.7304 9.98476C15.3085 9.16363 16.4583 8.87909 17.3466 9.33731L18.702 10.045C18.9604 10.1822 19.0663 10.5063 18.9338 10.7775C18.7995 11.0417 18.4826 11.1499 18.2173 11.0144L16.8618 10.3067C16.446 10.0892 15.8608 10.2341 15.5951 10.6202L13.3261 13.8418C12.748 14.663 11.5982 14.9475 10.71 14.4893L10.4344 14.3414C10.0528 14.1452 9.52287 14.2466 9.23009 14.5798L6.39451 17.7479C6.31146 17.8281 6.21486 17.8818 6.11847 17.9057Z" fill="#A1A1A1"/>
<ellipse cx="14.5" cy="11.291" rx="5.5" ry="0.5" fill="#A1A1A1"/>
</svg>
