<svg width="21" height="23" viewBox="0 0 21 23" fill="none" xmlns="http://www.w3.org/2000/svg">
<path d="M14.5597 17.3903L10.4187 18.4999C6.67105 19.504 4.64082 18.3319 3.63666 14.5843L2.52708 10.4433C1.52291 6.69567 2.69506 4.66545 6.44267 3.66128L10.5837 2.5517C14.3313 1.54753 16.3615 2.71968 17.3657 6.46729L18.4752 10.6083C19.4794 14.3559 18.3073 16.3861 14.5597 17.3903ZM6.72006 4.69653C3.53839 5.54905 2.7098 6.98421 3.56233 10.1659L4.67191 14.3069C5.52443 17.4886 6.95959 18.3171 10.1413 17.4646L14.2823 16.355C17.4639 15.5025 18.2925 14.0674 17.44 10.8857L16.3304 6.74468C15.4779 3.56301 14.0427 2.73442 10.8611 3.58695L6.72006 4.69653Z" fill="#A1A1A1"/>
<path d="M16.2783 5.91543L3.19277 9.4217C2.9098 9.49752 2.61227 9.32574 2.53645 9.04277C2.46063 8.7598 2.62551 8.46412 2.91538 8.38645L16.0009 4.88018C16.2839 4.80436 16.5814 4.97614 16.6573 5.25911C16.7331 5.54208 16.5682 5.83776 16.2783 5.91543Z" fill="#A1A1A1"/>
<path d="M7.30788 8.21536C7.02492 8.29119 6.72738 8.1194 6.65156 7.83644L5.7528 4.48222C5.67698 4.19926 5.84876 3.90172 6.13173 3.8259C6.4147 3.75008 6.71223 3.92186 6.78805 4.20483L7.68681 7.55904C7.76263 7.84201 7.59085 8.13954 7.30788 8.21536Z" fill="#A1A1A1"/>
<path d="M12.0282 6.61768C11.7453 6.6935 11.4477 6.52172 11.3719 6.23875L10.5564 3.19512C10.4805 2.91215 10.6523 2.61461 10.9353 2.53879C11.2183 2.46297 11.5158 2.63475 11.5916 2.91772L12.4072 5.96136C12.4848 6.25123 12.3181 6.54001 12.0282 6.61768Z" fill="#A1A1A1"/>
<path d="M11.0049 14.9179C10.7564 14.9844 10.5051 14.9852 10.2597 14.9252C9.71644 14.7749 9.29243 14.2967 9.10565 13.5997L8.66182 11.9433C8.47504 11.2462 8.60132 10.6132 9.00356 10.2095C9.4058 9.80584 10.038 9.68082 10.7328 9.87191L12.3903 10.3155C13.0832 10.4997 13.5739 10.923 13.7218 11.4751C13.8698 12.0272 13.6565 12.6392 13.1416 13.147L11.9279 14.3598C11.6484 14.6419 11.3293 14.8309 11.0049 14.9179ZM9.92994 10.8785C9.86092 10.897 9.80251 10.9275 9.76159 10.968C9.63885 11.0897 9.612 11.3484 9.69707 11.6659L10.1409 13.3223C10.2241 13.6328 10.3767 13.8435 10.5457 13.8943C10.7128 13.9383 10.9502 13.8303 11.1768 13.5995L12.3904 12.3866C12.6171 12.1558 12.7309 11.9181 12.6866 11.7525C12.6422 11.5869 12.4317 11.4361 12.1131 11.3514L10.4556 10.9078C10.2484 10.8524 10.0611 10.8434 9.92994 10.8785Z" fill="#A1A1A1"/>
<ellipse cx="12.5" cy="21.5254" rx="5.5" ry="0.5" fill="#A1A1A1"/>
</svg>
