<svg width="24" height="24" viewBox="0 0 24 24" fill="none" xmlns="http://www.w3.org/2000/svg">
<path d="M12.89 5.87891H5.11C4.28599 5.88154 3.49648 6.21005 2.91381 6.79272C2.33114 7.37538 2.00264 8.16489 2 8.98891V20.3489C2 21.7989 3.04 22.4189 4.31 21.7089L8.24 19.5189C8.66 19.2889 9.34 19.2889 9.75 19.5189L13.68 21.7089C14.96 22.4089 16 21.7989 16 20.3489V8.98891C16 7.27891 14.6 5.87891 12.89 5.87891Z" fill="black"/>
<path d="M22.0018 5.11V16.47C22.0018 17.92 20.9618 18.53 19.6918 17.83L17.7618 16.75C17.6835 16.7061 17.6182 16.6423 17.5726 16.565C17.5269 16.4877 17.5025 16.3998 17.5018 16.31V8.99C17.5018 6.45 15.4318 4.38 12.8918 4.38H8.82179C8.45179 4.38 8.19179 3.99 8.36179 3.67C8.88179 2.68 9.92179 2 11.1118 2H18.8918C20.6018 2 22.0018 3.4 22.0018 5.11Z" fill="black"/>
</svg>
