<svg width="14" height="14" viewBox="0 0 14 14" fill="none" xmlns="http://www.w3.org/2000/svg">
<path d="M8.58668 13.2708H5.44254C5.06921 13.2708 4.74253 13.2474 4.44503 13.2066C4.20586 13.1716 4.03669 12.9499 4.07169 12.7108C4.10669 12.4716 4.32254 12.2966 4.56754 12.3374C4.82421 12.3724 5.11003 12.3899 5.4367 12.3899H8.58088C10.9667 12.3899 11.8125 11.5441 11.8125 9.15822V6.53906C11.8125 6.2999 12.0109 6.10156 12.25 6.10156C12.4892 6.10156 12.6875 6.2999 12.6875 6.53906V9.15822C12.6934 12.0399 11.4625 13.2708 8.58668 13.2708Z" fill="#8C8C8C"/>
<path d="M1.77336 9.49078C1.53419 9.49078 1.33586 9.29245 1.33586 9.05328V6.54492C1.33586 6.30576 1.53419 6.10742 1.77336 6.10742C2.01252 6.10742 2.21086 6.30576 2.21086 6.54492V9.05328C2.21086 9.29245 2.01252 9.49078 1.77336 9.49078Z" fill="#8C8C8C"/>
<path d="M7.01741 7.43758C6.37574 7.43758 5.79237 7.18677 5.3782 6.72593C4.96404 6.2651 4.77154 5.66424 4.83571 5.02257L5.22657 1.12595C5.2499 0.904279 5.43657 0.729248 5.66407 0.729248H8.38822C8.61572 0.729248 8.80239 0.898446 8.82573 1.12595L9.21655 5.02257C9.28071 5.66424 9.08822 6.2651 8.67405 6.72593C8.24239 7.18677 7.65907 7.43758 7.01741 7.43758ZM6.04905 1.60425L5.69907 5.11009C5.65823 5.50092 5.77489 5.86843 6.01989 6.13676C6.51573 6.68509 7.50737 6.68509 8.0032 6.13676C8.2482 5.86259 8.3649 5.49509 8.32407 5.11009L7.97405 1.60425H6.04905Z" fill="#8C8C8C"/>
<path d="M10.6925 7.43758C9.50835 7.43758 8.45252 6.4809 8.33002 5.30256L7.92168 1.21339C7.91001 1.09089 7.95085 0.968415 8.03251 0.875081C8.11418 0.781748 8.23085 0.729248 8.35918 0.729248H10.1383C11.8533 0.729248 12.6525 1.44675 12.8917 3.20841L13.055 4.8301C13.125 5.51843 12.915 6.17178 12.4658 6.66761C12.0167 7.16345 11.3867 7.43758 10.6925 7.43758ZM8.84332 1.60425L9.20502 5.21505C9.28085 5.94421 9.96335 6.56258 10.6925 6.56258C11.1358 6.56258 11.5325 6.39345 11.8183 6.08428C12.0983 5.77511 12.2267 5.36095 12.1858 4.91761L12.0225 3.31345C11.8417 1.99511 11.4158 1.60425 10.1383 1.60425H8.84332Z" fill="#8C8C8C"/>
<path d="M3.30738 7.43758C2.61321 7.43758 1.98323 7.16345 1.53406 6.66761C1.08489 6.17178 0.874887 5.51843 0.944887 4.8301L1.10824 3.22593C1.35324 1.44677 2.15239 0.729248 3.86739 0.729248H5.64655C5.76905 0.729248 5.88572 0.781748 5.97322 0.875081C6.05488 0.968415 6.09572 1.09089 6.08405 1.21339L5.67571 5.30256C5.54738 6.4809 4.48571 7.43758 3.30738 7.43758ZM3.86155 1.60425C2.58405 1.60425 2.15823 1.98922 1.97156 3.32505L1.81405 4.91177C1.76738 5.35511 1.90155 5.76927 2.18155 6.07844C2.46155 6.38761 2.86405 6.55674 3.30738 6.55674C4.04238 6.55674 4.72487 5.93845 4.79487 5.20928L5.15657 1.59841H3.86155V1.60425Z" fill="#8C8C8C"/>
<path d="M2.91667 13.8541C2.1 13.8541 1.33584 13.4983 0.810842 12.8741C0.805009 12.8683 0.781665 12.8449 0.764165 12.8158C0.676665 12.7108 0.600829 12.6058 0.542496 12.495C0.285829 12.0808 0.145833 11.5908 0.145833 11.0775C0.145833 10.2258 0.525017 9.43831 1.18418 8.91331C1.30085 8.81998 1.42917 8.73244 1.56917 8.65661C1.97167 8.42911 2.44417 8.30078 2.91667 8.30078C3.59333 8.30078 4.21752 8.53413 4.71918 8.97163C4.78335 9.0183 4.87082 9.10579 4.94666 9.18746C5.41916 9.70663 5.68166 10.3716 5.68166 11.0658C5.68166 11.5733 5.54166 12.0692 5.27916 12.495C5.15083 12.7167 4.99334 12.9091 4.81834 13.0608C4.78334 13.0958 4.74834 13.1308 4.7075 13.16C4.24667 13.6092 3.59917 13.8541 2.91667 13.8541ZM1.44666 12.2733C1.46416 12.2908 1.49332 12.3199 1.51665 12.3608C1.83749 12.7399 2.3625 12.985 2.91667 12.985C3.3775 12.985 3.82084 12.8158 4.15917 12.5124C4.17667 12.4891 4.2 12.4658 4.22917 12.4483C4.34583 12.3491 4.44502 12.2208 4.53835 12.0691C4.71918 11.7716 4.81834 11.4391 4.81834 11.0891C4.81834 10.6166 4.63751 10.1558 4.31084 9.79999C4.27001 9.75332 4.22915 9.7066 4.17665 9.6716C3.54665 9.1291 2.68332 9.04749 1.99499 9.43832C1.90166 9.49082 1.81999 9.54328 1.74416 9.60744C1.28916 9.96911 1.02667 10.5058 1.02667 11.0891C1.02667 11.4333 1.11999 11.7717 1.30082 12.0633C1.34749 12.145 1.39416 12.2091 1.44666 12.2675C1.44082 12.2675 1.44666 12.2675 1.44666 12.2733Z" fill="#8C8C8C"/>
</svg>
