<svg width="42" height="40" viewBox="0 0 42 40" fill="none" xmlns="http://www.w3.org/2000/svg">
<rect x="0.5" y="0.5" width="41" height="39" rx="9.5" fill="#F8F8F8" fill-opacity="0.972549" stroke="#EEEEEE"/>
<path d="M17.8576 10.5006C18.5087 10.5196 19.1394 10.6297 19.7502 10.8307H19.8117C19.8528 10.8496 19.8839 10.8704 19.9045 10.8893C20.1329 10.9603 20.3492 11.041 20.5559 11.151L20.9485 11.321C21.1034 11.401 21.2895 11.55 21.3928 11.611C21.496 11.6699 21.6095 11.7306 21.7024 11.7995C22.8506 10.9505 24.2453 10.4906 25.6819 10.5006C26.3338 10.5007 26.9848 10.5898 27.6037 10.7907C31.4184 11.9907 32.793 16.0407 31.6447 19.5807C30.9937 21.3896 29.9294 23.0404 28.5354 24.3893C26.5397 26.2593 24.3498 27.9203 21.9924 29.3503L21.7336 29.5006L21.4651 29.3395C19.0993 27.9195 16.8964 26.2596 14.882 24.3796C13.4973 23.0306 12.4321 21.3896 11.7707 19.5807C10.6029 16.0408 11.9773 11.9912 15.8332 10.7702C16.1329 10.6702 16.4421 10.6002 16.7522 10.5612H16.8762C17.1666 10.5202 17.455 10.5006 17.7444 10.5006H17.8576ZM27.0666 13.6608C26.6429 13.5198 26.1777 13.7408 26.0227 14.1608C25.878 14.5808 26.1053 15.0411 26.5393 15.1901C27.2016 15.4301 27.6456 16.0606 27.6457 16.7594V16.7907C27.6261 17.0197 27.6973 17.2408 27.842 17.4108C27.9867 17.5807 28.2036 17.6798 28.4309 17.7008C28.8545 17.6898 29.2161 17.3609 29.2473 16.9401V16.821C29.2783 15.42 28.4009 14.1508 27.0666 13.6608Z" fill="#EA4335"/>
</svg>
