<svg width="38" height="40" viewBox="0 0 38 40" fill="none" xmlns="http://www.w3.org/2000/svg">
<rect x="0.5" y="0.5" width="37" height="39" rx="9.5" fill="#F8F8F8" fill-opacity="0.972549" stroke="#EEEEEE"/>
<path d="M23.0156 11.668H14.9823C13.2073 11.668 11.7656 13.118 11.7656 14.8846V26.6263C11.7656 28.1263 12.8406 28.7596 14.1573 28.0346L18.224 25.7763C18.6573 25.5346 19.3573 25.5346 19.7823 25.7763L23.849 28.0346C25.1656 28.768 26.2406 28.1346 26.2406 26.6263V14.8846C26.2323 13.118 24.7906 11.668 23.0156 11.668ZM21.0823 19.5013H19.624V21.0096C19.624 21.3513 19.3406 21.6346 18.999 21.6346C18.6573 21.6346 18.374 21.3513 18.374 21.0096V19.5013H16.9156C16.574 19.5013 16.2906 19.218 16.2906 18.8763C16.2906 18.5346 16.574 18.2513 16.9156 18.2513H18.374V16.843C18.374 16.5013 18.6573 16.218 18.999 16.218C19.3406 16.218 19.624 16.5013 19.624 16.843V18.2513H21.0823C21.424 18.2513 21.7073 18.5346 21.7073 18.8763C21.7073 19.218 21.424 19.5013 21.0823 19.5013Z" fill="#A1A1A1"/>
</svg>
