<svg width="20" height="20" viewBox="0 0 20 20" fill="none" xmlns="http://www.w3.org/2000/svg">
<g clip-path="url(#clip0_409_681)">
<path d="M10.0013 18.3332C14.6038 18.3332 18.3346 14.6023 18.3346 9.99984C18.3346 5.39734 14.6038 1.6665 10.0013 1.6665C5.3988 1.6665 1.66797 5.39734 1.66797 9.99984C1.66797 14.6023 5.3988 18.3332 10.0013 18.3332Z" stroke="#A1A1A1" stroke-width="1.5" stroke-linecap="round" stroke-linejoin="round"/>
<path d="M6.66665 2.5H7.49998C5.87501 7.36797 5.87501 12.632 7.49998 17.5H6.66665M12.5 2.5C14.125 7.36797 14.125 12.632 12.5 17.5" stroke="#A1A1A1" stroke-width="1.5" stroke-linecap="round" stroke-linejoin="round"/>
<path d="M2.5 13.3333V12.5C7.36797 14.125 12.632 14.125 17.5 12.5V13.3333M2.5 7.49998C7.36797 5.87501 12.632 5.87501 17.5 7.49998" stroke="#A1A1A1" stroke-width="1.5" stroke-linecap="round" stroke-linejoin="round"/>
</g>
<defs>
<clipPath id="clip0_409_681">
<rect width="20" height="20" fill="white"/>
</clipPath>
</defs>
</svg>
