<svg width="23" height="23" viewBox="0 0 23 23" fill="none" xmlns="http://www.w3.org/2000/svg">
<g clip-path="url(#clip0_409_1336)">
<path d="M15.9267 0C15.9802 0 16.0337 0 16.0903 0C16.2216 1.62201 15.6025 2.83397 14.85 3.71163C14.1117 4.58323 13.1008 5.42858 11.4656 5.30031C11.3565 3.70153 11.9767 2.57946 12.7281 1.70382C13.425 0.887762 14.7026 0.161595 15.9267 0Z" fill="#B4B4B4"/>
<path d="M20.8761 16.8825C20.8761 16.8987 20.8761 16.9128 20.8761 16.928C20.4165 18.3197 19.7611 19.5125 18.9612 20.6194C18.231 21.6243 17.3361 22.9767 15.7384 22.9767C14.3577 22.9767 13.4407 22.0889 12.0257 22.0647C10.5289 22.0404 9.70582 22.807 8.33731 22.9999C8.18077 22.9999 8.02422 22.9999 7.87071 22.9999C6.86579 22.8545 6.05479 22.0586 5.46395 21.3415C3.72176 19.2226 2.37547 16.4856 2.125 12.983C2.125 12.6397 2.125 12.2973 2.125 11.9539C2.23105 9.44715 3.44907 7.40903 5.06805 6.42128C5.92248 5.8961 7.09707 5.44868 8.40498 5.64866C8.96551 5.73551 9.53816 5.92741 10.0401 6.11728C10.5158 6.30009 11.1107 6.62429 11.6742 6.60712C12.056 6.59601 12.4358 6.39704 12.8206 6.25666C13.9477 5.84964 15.0526 5.38304 16.509 5.6022C18.2592 5.86681 19.5015 6.64449 20.2691 7.84433C18.7885 8.78663 17.6179 10.2066 17.8179 12.6316C17.9956 14.8343 19.2763 16.123 20.8761 16.8825Z" fill="#B4B4B4"/>
</g>
<defs>
<clipPath id="clip0_409_1336">
<rect width="23" height="23" fill="white"/>
</clipPath>
</defs>
</svg>
