<svg width="20" height="19" viewBox="0 0 20 19" fill="none" xmlns="http://www.w3.org/2000/svg">
<path fill-rule="evenodd" clip-rule="evenodd" d="M8.13399 12.3636C7.97399 12.3636 7.81399 12.3058 7.69233 12.1895C7.07733 11.606 6.73816 10.8302 6.73816 10.0053C6.73816 8.29526 8.20149 6.9043 9.99983 6.9043C10.8648 6.9043 11.7048 7.23601 12.304 7.81471C12.5457 8.04905 12.5432 8.4243 12.2965 8.65388C12.0507 8.88505 11.6557 8.88109 11.4132 8.64834C11.0473 8.29446 10.5323 8.0918 9.99983 8.0918C8.89066 8.0918 7.98816 8.94996 7.98816 10.0053C7.98816 10.5127 8.19733 10.9909 8.57566 11.3503C8.81983 11.5823 8.81983 11.9575 8.57649 12.1895C8.45399 12.3058 8.29399 12.3636 8.13399 12.3636Z" fill="#8C8C8C"/>
<path fill-rule="evenodd" clip-rule="evenodd" d="M10.4729 13.0557C10.177 13.0557 9.91368 12.8546 9.85868 12.568C9.79702 12.2458 10.022 11.9362 10.362 11.8777C11.1787 11.7367 11.8254 11.1208 11.972 10.3442C12.0337 10.022 12.3587 9.80982 12.6979 9.86524C13.0379 9.92303 13.2637 10.2318 13.2029 10.5548C12.9637 11.8159 11.912 12.8166 10.5854 13.0462C10.5479 13.0525 10.5095 13.0557 10.4729 13.0557Z" fill="#8C8C8C"/>
<mask id="mask0_482_366" style="mask-type:luminance" maskUnits="userSpaceOnUse" x="1" y="3" width="15" height="12">
<path fill-rule="evenodd" clip-rule="evenodd" d="M1.66663 3.66113H15.0718V14.8222H1.66663V3.66113Z" fill="white"/>
</mask>
<g mask="url(#mask0_482_366)">
<path fill-rule="evenodd" clip-rule="evenodd" d="M5.54525 14.8222C5.41025 14.8222 5.27442 14.7802 5.15942 14.6955C3.75025 13.6442 2.55942 12.1028 1.71775 10.2392C1.64942 10.0888 1.64942 9.91936 1.71775 9.76973C2.56859 7.89823 3.76692 6.34894 5.18359 5.29048C8.07192 3.11894 11.9169 3.11182 14.8344 5.30632C15.1053 5.50978 15.1511 5.88344 14.9369 6.14073C14.7219 6.39644 14.3303 6.44157 14.0586 6.23732C11.5869 4.37848 8.40275 4.38482 5.95775 6.22307C4.76109 7.11765 3.73359 8.42073 2.97525 10.0057C3.72609 11.5811 4.74442 12.8762 5.93192 13.7613C6.20359 13.964 6.25025 14.3377 6.03692 14.5949C5.91359 14.7438 5.73025 14.8222 5.54525 14.8222Z" fill="#8C8C8C"/>
</g>
<mask id="mask1_482_366" style="mask-type:luminance" maskUnits="userSpaceOnUse" x="7" y="6" width="12" height="11">
<path fill-rule="evenodd" clip-rule="evenodd" d="M7.26453 6.92017H18.3333V16.3792H7.26453V6.92017Z" fill="white"/>
</mask>
<g mask="url(#mask1_482_366)">
<path fill-rule="evenodd" clip-rule="evenodd" d="M10.0001 16.3792C9.21922 16.3792 8.44255 16.2588 7.69255 16.0221C7.36505 15.9184 7.18755 15.582 7.29672 15.2708C7.40589 14.9589 7.75839 14.7935 8.08755 14.8948C8.71005 15.0919 9.35339 15.1917 10.0001 15.1917C12.8567 15.1917 15.4676 13.2584 17.0251 10.0039C16.6451 9.21299 16.2026 8.49654 15.7076 7.87112C15.5001 7.60908 15.5551 7.2362 15.8309 7.03908C16.1059 6.84195 16.4984 6.89579 16.7059 7.15704C17.3092 7.91783 17.8392 8.79737 18.2817 9.76795C18.3509 9.91837 18.3509 10.0894 18.2817 10.239C16.5351 14.0841 13.4392 16.3792 10.0001 16.3792Z" fill="#8C8C8C"/>
</g>
<mask id="mask2_482_366" style="mask-type:luminance" maskUnits="userSpaceOnUse" x="2" y="3" width="16" height="14">
<path fill-rule="evenodd" clip-rule="evenodd" d="M2.80298 3.16699H17.1976V16.8415H2.80298V3.16699Z" fill="white"/>
</mask>
<g mask="url(#mask2_482_366)">
<path fill-rule="evenodd" clip-rule="evenodd" d="M3.42777 16.8416C3.26777 16.8416 3.10777 16.7838 2.9861 16.6674C2.74194 16.4354 2.74194 16.0602 2.9861 15.8282L16.1311 3.34047C16.3753 3.10851 16.7703 3.10851 17.0144 3.34047C17.2586 3.57243 17.2586 3.94847 17.0144 4.18043L3.86944 16.6674C3.74777 16.7838 3.58777 16.8416 3.42777 16.8416Z" fill="#8C8C8C"/>
</g>
</svg>
