<svg width="25" height="26" viewBox="0 0 25 26" fill="none" xmlns="http://www.w3.org/2000/svg">
<g clip-path="url(#clip0_409_1449)">
<path d="M24.5737 13.2907C24.5737 12.4076 24.5056 11.5197 24.3602 10.6509H12.699V15.6537H19.3768C19.0997 17.2672 18.2093 18.6945 16.9055 19.6015V22.8476H20.8895C23.2291 20.5849 24.5737 17.2433 24.5737 13.2907Z" fill="#4285F4"/>
<path d="M12.7003 25.984C16.0347 25.984 18.8466 24.8336 20.8954 22.8477L16.9114 19.6016C15.803 20.394 14.372 20.8428 12.7049 20.8428C9.47949 20.8428 6.74475 18.5562 5.76354 15.4819H1.65234V18.8283C3.75109 23.2153 8.02581 25.984 12.7003 25.984Z" fill="#34A853"/>
<path d="M5.75772 15.4819C5.23983 13.8684 5.23983 12.1212 5.75772 10.5077V7.16138H1.65106C-0.102437 10.8323 -0.102437 15.1573 1.65106 18.8282L5.75772 15.4819Z" fill="#FBBC04"/>
<path d="M12.7003 5.14212C14.4629 5.11347 16.1664 5.81043 17.4429 7.08977L20.9726 3.38062C18.7376 1.1752 15.7712 -0.0373138 12.7003 0.000875482C8.02581 0.000875482 3.75109 2.7696 1.65234 7.16137L5.75898 10.5077C6.73568 7.42869 9.47496 5.14212 12.7003 5.14212Z" fill="#EA4335"/>
</g>
<defs>
<clipPath id="clip0_409_1449">
<rect width="25" height="26" fill="white"/>
</clipPath>
</defs>
</svg>
